<svg width="1920" height="1380" viewBox="0 0 1920 1380" fill="none" xmlns="http://www.w3.org/2000/svg">
<g clip-path="url(#clip0_633_1257)">
<path d="M1920 0H0V759H1920V0Z" fill="url(#paint0_linear_633_1257)"/>
<path d="M550.045 245.051C545.422 244.666 521.6 244.281 485.333 243.896C395.022 242.933 228.267 241.971 91.5556 241.586C58.8445 241.586 27.7334 241.393 -0.177734 241.393V203.086C5.86671 203.471 11.9112 203.663 17.9556 204.048C31.4667 204.818 45.1556 205.396 59.0223 205.588C89.9556 205.781 121.067 203.086 150.222 191.151C151.111 190.766 152.711 189.804 155.022 188.456C170.489 179.216 215.289 150.149 252.978 141.871C296.178 132.439 323.022 153.614 323.022 153.614C323.022 153.614 388.622 201.739 393.6 204.626C413.333 216.561 441.778 215.213 463.645 216.368C492.8 217.908 519.467 215.598 547.378 225.031C573.333 233.693 574.933 247.361 550.045 245.051Z" fill="url(#paint1_linear_633_1257)"/>
<path d="M553.6 259.873C554.311 277.968 505.778 272 499.022 271.615C477.689 270.845 224.178 275.465 224.178 275.465C224.178 275.465 169.6 274.503 115.556 273.54C71.8222 272.77 28.2667 272 14.0444 271.808C9.24444 271.808 4.62222 271.808 0 271.808V153.614C11.3778 151.689 22.7556 150.726 34.4889 149.764C45.8667 148.801 57.6 149.571 68.9778 150.341C95.2889 152.074 117.511 155.154 138.667 173.249C144.533 178.254 149.867 183.451 155.022 188.456C171.733 204.818 187.556 220.026 213.511 220.796C240.533 221.566 265.067 200.583 292.267 205.588C299.733 206.936 324.978 226.763 346.667 231.768C368.356 236.773 398.578 221.951 435.733 225.993C461.511 228.688 476.089 238.506 485.333 243.896C489.422 246.398 492.444 247.938 494.933 247.746C507.911 247.168 520.356 246.013 533.511 246.398C541.156 246.591 553.067 250.056 553.6 259.873Z" fill="url(#paint2_linear_633_1257)"/>
<path d="M1089.96 465.461C1091.2 468.349 1102.04 466.616 1104.53 466.616C1107.2 466.616 1109.69 466.616 1112.36 466.616C1128.89 466.616 1145.24 466.424 1161.6 468.349C1227.2 475.664 1293.33 483.749 1359.11 485.674C1375.11 486.059 1393.24 487.791 1408.89 483.941C1413.51 482.786 1419.2 480.091 1419.73 474.316C1421.51 458.916 1410.49 452.756 1397.51 451.794C1389.16 451.216 1384.36 454.489 1376.71 457.376C1366.58 461.226 1349.33 461.611 1339.38 456.799C1337.24 455.836 1333.16 454.296 1331.56 452.371C1329.6 449.869 1330.84 446.789 1330.49 443.901C1329.6 436.394 1327.29 432.352 1320.71 429.272C1308.09 423.497 1291.2 424.652 1279.82 432.159C1271.64 437.549 1265.78 444.671 1255.47 445.634C1249.6 446.211 1241.96 446.404 1236.27 444.479C1229.51 442.169 1223.82 436.394 1217.6 432.737C1207.64 426.769 1194.13 422.727 1182.93 420.994C1162.31 417.722 1142.93 425.999 1123.73 433.314C1117.51 435.817 1112.36 439.474 1105.6 440.052C1092.09 441.014 1078.58 438.127 1065.07 437.164C1053.51 436.394 1041.96 437.742 1030.76 440.629C1025.78 441.976 1014.22 443.131 1011.56 449.099C1006.93 459.109 1027.02 456.991 1031.82 456.991C1051.02 456.991 1070.58 457.376 1089.96 458.724C1097.42 459.109 1104.71 461.611 1112.18 461.611L1089.96 465.461Z" fill="url(#paint3_linear_633_1257)"/>
<path d="M1065.96 469.119C1064.18 469.696 1069.69 467.964 1071.47 467.194C1075.56 465.461 1079.82 463.729 1083.91 462.189C1094.76 457.954 1113.6 450.831 1124.8 455.451C1128.18 456.799 1128.53 461.226 1131.56 462.766C1134.4 464.306 1141.33 460.264 1144 459.301C1153.96 456.414 1165.87 454.681 1176.18 453.719C1182.4 453.141 1192.18 452.371 1198.04 455.451C1203.56 458.339 1205.69 462.574 1212.62 463.344C1220.27 464.114 1227.91 462.381 1235.38 461.611C1249.07 460.456 1266.13 458.724 1279.47 462.766C1292.09 466.424 1305.42 473.161 1315.2 482.401C1316.8 483.941 1321.96 488.176 1320.36 491.449C1319.11 494.144 1305.96 493.759 1303.82 493.759C1286.22 493.759 1268.44 492.219 1250.84 490.294C1226.67 487.599 1202.13 489.716 1177.78 488.561C1158.22 487.791 1139.02 484.904 1119.64 484.134C1100.27 483.171 1080.89 485.096 1061.51 483.556C1055.82 483.171 1049.42 483.941 1043.91 482.401C1040.18 481.439 1036.09 473.546 1041.78 472.199C1047.82 470.851 1054.22 470.659 1060.44 469.311C1060.98 469.119 1067.73 467.579 1067.73 467.579C1067.56 468.349 1066.67 468.734 1065.96 469.119Z" fill="url(#paint4_linear_633_1257)"/>
<path d="M1920 2.11745V339.182C1914.84 339.952 1909.69 340.722 1904.36 341.492L1920 341.877V343.417C1901.51 343.61 1883.2 343.802 1864.71 343.417C1841.96 343.032 1799.11 344.187 1743.29 345.92C1538.84 352.08 1162.84 366.325 989.867 347.46C769.778 323.397 968.889 260.643 984 247.553C996.444 236.581 1009.24 225.031 1024 217.716C1062.4 198.466 1114.67 199.043 1155.91 201.546C1200.71 204.241 1246.93 209.053 1290.49 194.231C1314.31 186.146 1335.11 171.131 1356.8 158.234C1418.13 121.852 1477.87 82.9668 1543.47 55.632C1568.71 45.2371 1595.38 39.0772 1621.51 31.7622C1667.2 18.8648 1714.67 8.85489 1761.78 3.46494C1764.09 3.27244 1766.4 2.88744 1768.71 2.69494C1815.64 -1.92502 1864.53 -0.192535 1911.47 1.34745C1914.13 1.73245 1917.16 1.92495 1920 2.11745Z" fill="url(#paint5_linear_633_1257)"/>
<path d="M1056.71 1123.04C1061.87 1124.96 1059.2 1123.42 1064.53 1127.85L1056.71 1123.04Z" fill="url(#paint6_linear_633_1257)"/>
<path d="M1920 172.286V831.786C1913.78 832.749 1908.09 833.519 1904.71 834.289C1892.98 836.599 1881.24 838.909 1869.51 841.219C1831.47 848.341 1793.6 854.116 1754.67 856.811C1629.16 865.473 1502.76 863.933 1376.53 861.431C1300.98 859.891 1225.6 858.158 1150.4 858.158C1094.76 858.158 1039.11 858.158 983.467 858.158C936.533 858.158 889.778 857.966 842.844 857.773H842.667C804.444 857.581 766.4 857.388 728.178 857.003C728 857.003 728 857.003 727.822 857.003C702.222 856.811 676.622 856.426 651.2 856.233C593.6 855.463 536 854.501 478.222 852.961C410.311 851.421 342.4 853.346 274.667 849.881C262.933 849.303 251.2 848.533 239.467 847.571C208.356 845.068 174.578 846.993 144.178 839.679C134.933 837.369 125.867 834.096 116.8 830.439C99.2 823.316 81.6 814.461 63.4667 809.264C49.4223 805.221 32.7111 807.339 18.4889 803.104C13.5111 801.564 8.88892 799.446 4.80004 795.981C0.533368 792.324 1.24448 788.281 2.13337 784.239C3.02226 780.582 4.08892 776.924 2.13337 773.459C1.60004 772.689 1.0667 771.919 0.355591 771.342V159.196C21.6889 171.901 41.4223 187.879 59.5556 205.781C71.1111 217.138 81.7778 229.266 92.0889 241.778C100.444 252.173 108.444 262.953 116.089 273.733C128.356 291.25 139.556 309.153 149.689 327.055C174.578 370.367 193.956 428.694 243.733 450.254C258.845 456.799 384.711 404.632 465.244 457.762C526.756 498.379 618.311 615.995 814.044 622.348C1003.91 628.508 1133.33 552.663 1238.76 489.139C1242.13 487.214 1245.33 485.096 1248.71 483.171C1251.2 481.631 1253.69 480.091 1256.36 478.551C1264.71 473.546 1272.71 468.349 1280.89 462.959C1296.18 452.949 1311.47 442.747 1326.76 433.122C1356.44 414.064 1386.84 396.547 1421.16 383.842C1458.67 369.982 1499.91 360.357 1539.91 365.362C1578.67 370.175 1618.13 383.65 1657.42 381.34C1677.69 380.185 1701.51 365.17 1720 357.47C1728.36 354.005 1736.36 350.155 1744 346.112C1807.64 312.233 1846.4 259.103 1893.69 203.663C1897.6 198.081 1908.44 183.259 1920 172.286Z" fill="url(#paint7_linear_633_1257)"/>
<path d="M1920 512.046V841.026H1889.6C1882.84 841.026 1876.27 841.026 1869.51 841.218C1785.78 841.988 1702.04 847.763 1618.31 847.763C1564.62 847.763 1510.93 849.688 1457.42 852.191C1432.89 853.346 1421.69 852.191 1422.93 852.961L1376.53 861.238L1344.18 867.013C1318.4 876.253 1221.16 897.621 1130.31 906.861C1038.22 916.293 945.956 923.993 853.867 932.655C803.911 937.275 748.8 939.778 699.2 930.345C677.689 926.303 644.978 918.41 642.489 888.958C641.6 878.948 644.267 869.131 648.889 860.083C649.6 858.736 650.489 857.196 651.2 855.848C658.133 844.491 668.089 834.866 678.578 828.129C682.311 825.626 686.222 823.509 689.956 821.969C714.489 811.381 740.8 806.376 765.333 795.211C780.089 788.474 794.845 780.966 809.245 772.882C814.045 770.187 818.845 767.492 823.467 764.797C826.489 763.064 829.334 761.332 832.356 759.599C858.311 744.007 883.734 727.259 908.622 710.512C916.8 705.122 925.156 699.54 933.511 694.15C1009.78 645.64 1099.38 602.135 1187.02 598.863C1211.56 597.9 1235.02 604.83 1259.2 606.755C1299.2 609.835 1339.02 612.53 1378.84 617.92C1427.2 624.465 1472.53 637.17 1522.31 627.93C1574.93 618.113 1627.91 586.735 1667.73 548.621C1680.18 536.686 1688.36 523.403 1703.82 515.126C1769.42 479.514 1838.76 476.241 1905.96 506.271C1910.76 508.004 1915.38 509.929 1920 512.046Z" fill="url(#paint8_linear_633_1257)"/>
<path d="M825.6 759.407C825.067 761.332 824.356 763.064 823.289 764.604C820.622 768.647 816 771.534 809.067 772.689C803.911 773.652 797.511 773.652 789.867 772.689C725.689 764.219 662.4 764.989 597.867 763.834C585.778 763.642 573.511 763.449 561.422 763.064C541.689 762.487 522.133 761.909 502.4 761.139C487.644 760.562 473.067 759.984 458.311 759.214C422.222 757.674 386.133 755.749 350.044 754.209C326.4 753.054 302.756 752.092 279.111 751.322C216.356 749.012 153.422 749.782 90.6667 751.322C64 751.899 37.1556 747.087 15.1111 743.814C13.6889 743.622 13.5111 747.087 12.2667 746.894C7.46668 746.509 3.3778 744.969 0.177795 742.274V544.578C32.8889 518.014 102.4 506.079 130.489 507.041C176 508.774 219.911 524.558 264.356 532.258C329.778 543.616 399.111 545.733 460.978 575.186C493.689 590.778 526.578 618.498 555.911 644.485C563.2 651.03 570.311 657.382 577.245 663.35C591.467 675.862 609.778 696.075 627.2 702.427C652.089 711.475 687.644 702.427 712.178 696.075C778.133 679.327 831.822 732.842 825.6 759.407Z" fill="url(#paint9_linear_633_1257)"/>
<path d="M623.822 829.091C610.844 828.514 591.467 827.744 564.267 826.974C471.822 824.664 379.911 817.734 287.289 825.626C283.378 826.011 279.289 826.204 275.378 826.589C224 830.824 169.422 833.711 116.622 830.054C96.7112 828.706 77.1556 826.396 58.1334 823.124C46.5778 821.006 30.7556 813.499 18.1334 802.911C11.5556 797.329 5.68895 790.976 1.77784 784.046C1.06673 782.891 0.533394 781.736 6.10352e-05 780.581V722.832L2.13339 698L9.2445 612.915C28.8001 604.445 55.8223 610.99 76.8001 607.91C178.667 592.895 319.111 626.198 409.422 687.22C414.222 690.492 418.845 693.765 423.467 697.23C426.133 699.347 428.8 701.272 431.467 703.389C454.756 721.484 477.511 740.542 500.267 759.407C500.978 759.984 501.689 760.562 502.578 761.332C508.8 766.529 515.022 771.534 521.245 776.731C540.445 792.324 557.689 813.884 581.689 820.814C596.089 824.856 611.556 827.551 623.822 829.091Z" fill="url(#paint10_linear_633_1257)"/>
<path d="M1920 898.968H6.10352e-05V1940H1920V898.968Z" fill="url(#paint11_linear_633_1257)"/>
<path d="M623.822 829.091C659.556 831.016 648.178 832.171 623.822 829.091V829.091Z" fill="url(#paint12_linear_633_1257)"/>
<path d="M395.556 719.944C409.422 719.944 472 677.787 489.778 669.51C548.444 642.753 609.6 626.198 673.6 624.08C772.622 620.808 940.978 697.037 940.978 697.037C940.978 697.037 1126.22 811.189 1262.76 834.674C1281.78 837.946 1009.42 854.886 991.289 857.003C922.667 864.896 851.911 855.656 783.111 855.656C647.467 855.656 512.889 872.018 377.067 872.018C350.222 872.018 266.133 887.611 273.6 831.786C275.022 821.199 296 806.376 302.756 799.061C323.378 776.732 349.156 752.284 374.933 737.269C389.867 728.607 407.644 728.222 421.511 717.057L395.556 719.944Z" fill="url(#paint13_linear_633_1257)"/>
<path d="M1920 673.36V1015.81C1877.51 1036.22 1734.76 1118.99 1717.16 1120.15C1704.36 1120.92 1692.09 1121.69 1680.71 1122.65C1640.53 1125.54 1597.51 1130.93 1555.38 1139.4C1545.6 1141.32 1536 1143.44 1526.4 1145.94C1525.51 1146.14 1336 954.408 1010.84 1028.9C793.956 1078.76 515.2 1236.42 505.422 1236.61C469.689 1237.19 434.133 1237.57 398.756 1237.57H398.222C385.245 1237.57 380.267 1211.59 365.867 1212.55C365.867 1212.55 316.267 1168.85 294.933 1163.27C270.578 1156.92 162.844 1129.97 127.467 1122.84C101.333 1117.84 14.0445 1155.95 10.4889 1154.8C7.11117 1153.64 3.55562 1152.68 6.10352e-05 1151.91V698.577C0.711172 698.385 1.42228 698.192 2.13339 698C111.822 669.702 219.022 652.57 332.089 668.355C358.578 672.012 384.178 678.557 409.422 687.22C419.556 690.685 429.689 694.535 439.645 698.577C458.133 706.277 476.445 714.747 494.4 723.987C515.022 734.574 535.111 746.702 555.378 759.214C557.333 760.562 559.467 761.717 561.422 763.064C599.644 786.934 637.689 811.766 678.4 827.936C704.356 838.331 731.556 845.453 760.533 846.608C868.978 851.228 970.845 799.061 1074.49 768.647C1084.44 765.759 1094.22 763.064 1104.18 760.562C1105.96 760.177 1107.91 759.599 1109.69 759.214C1190.04 739.772 1273.07 729.377 1354.31 715.902C1484.44 694.342 1615.11 672.59 1746.84 668.162C1801.78 666.43 1861.69 665.66 1920 673.36Z" fill="url(#paint14_linear_633_1257)"/>
<path d="M4.34071e-05 1164.81V1160.19C3.5556 1158.26 6.93338 1156.34 10.4889 1154.61C80.7112 1119.38 160.889 1111.49 236.267 1138.63C315.556 1167.31 394.311 1236.42 482.133 1228.53C550.4 1222.37 614.4 1176.36 672.889 1142.29C724.978 1111.87 779.022 1090.31 834.489 1069.33C852.089 1062.59 870.045 1049.5 888.356 1046.23C913.956 1041.61 939.911 1031.98 965.867 1030.44C996.978 1028.71 1029.33 1029.48 1060.09 1025.63C1096.18 1021.2 1138.13 1012.54 1174.58 1017.16C1200.71 1020.43 1226.84 1024.86 1253.16 1030.06C1293.87 1037.95 1334.4 1047.96 1374.4 1058.93C1385.6 1062.01 1396.8 1065.09 1407.82 1068.37C1426.49 1073.76 1434.13 1083.38 1433.78 1093.58C1433.6 1096.28 1432.89 1098.78 1431.82 1101.48C1423.64 1120.15 1390.93 1137.47 1350.58 1131.51C1300.98 1124.19 1250.31 1121.88 1200.18 1121.88C1190.4 1121.88 1157.87 1121.69 1155.2 1135.36C1149.69 1164.81 1187.2 1168.85 1205.69 1174.24C1234.84 1182.71 1314.31 1190.41 1363.2 1195.03C1379.56 1196.57 1392.36 1197.73 1398.76 1198.5C1411.56 1200.04 1479.64 1206.77 1468.27 1237.38C1458.49 1263.95 1358.04 1234.11 1338.13 1227.76C1312.53 1219.48 1286.58 1213.13 1260.44 1208.31C1185.6 1194.45 1108.44 1192.53 1032.89 1192.53C1013.16 1192.53 970.311 1192.34 947.022 1207.35C940.444 1211.59 935.467 1217.17 932.978 1224.1C923.2 1252.59 974.4 1250.47 990.222 1252.01C1044.8 1257.4 1099.73 1246.24 1154.13 1253.17C1163.2 1254.32 1229.87 1262.98 1219.2 1277.42C1209.42 1291.09 1150.4 1282.42 1120.53 1289.55C1000.71 1318.42 953.422 1326.89 893.689 1329.78C853.689 1331.7 750.4 1335.55 745.778 1314.96C742.222 1299.56 794.667 1301.67 800.711 1301.67C846.222 1301.67 890.133 1310.14 935.467 1310.14C945.778 1310.14 966.933 1310.14 972.444 1298.02C983.467 1274.15 924.8 1266.45 916.267 1265.29C867.911 1258.75 816.178 1255.67 769.245 1242.19C764.8 1240.85 747.022 1232.18 739.2 1224.1C736.711 1221.4 735.289 1218.9 735.644 1216.59C737.6 1201.38 762.489 1191.37 773.867 1188.68C813.867 1179.05 855.822 1179.25 895.111 1168.08C904.711 1165.39 950.933 1147.48 938.844 1128.04C921.067 1099.17 858.667 1108.6 833.422 1117.07C819.022 1121.88 731.556 1156.92 641.422 1190.22C641.422 1190.22 641.422 1190.22 641.245 1190.22C641.245 1190.22 641.245 1190.22 641.067 1190.22C593.067 1207.93 544.356 1225.06 505.422 1236.8C468.8 1247.97 440.711 1254.32 430.4 1252.01C418.133 1249.12 408 1243.93 398.756 1237.77C384.178 1228.14 371.733 1215.82 355.2 1205.81C332.089 1191.95 292.267 1186.18 256.711 1188.49H256.533C236.089 1189.83 217.067 1193.68 203.556 1200.04C199.289 1202.15 195.378 1204.46 192.356 1207.16C176.356 1220.83 275.378 1219.48 265.245 1237.57C260.622 1245.85 227.733 1242 220.267 1241.23C208.178 1240.08 112.711 1204.46 93.5111 1199.84C64.5334 1193.11 25.7778 1196.19 -0.177734 1212.93V1164.81H4.34071e-05Z" fill="url(#paint15_linear_633_1257)"/>
<path d="M1920 972.502V1049.5C1658.13 1145.37 1667.91 1274.53 1380.62 1080.88C1299.91 1039.11 1201.07 1031.41 1113.6 1035.83C869.333 1056.43 808 1106.87 605.867 1207.35C343.467 1329.01 349.867 1187.72 145.244 1152.68C98.8445 1145.37 47.2889 1148.45 0.177795 1164.81V1090.89C403.911 990.982 231.645 1303.21 708.622 1071.25C809.244 1033.14 916.445 1014.47 1021.69 994.64C1465.6 939.008 1473.24 1233.72 1817.07 1006.57C1849.96 987.132 1880.89 974.042 1920 972.502Z" fill="url(#paint16_linear_633_1257)"/>
<path fill-rule="evenodd" clip-rule="evenodd" d="M928.906 997.554C925.45 997.896 927.003 998.159 924.2 997.088L928.906 997.554Z" fill="#454C36"/>
<path fill-rule="evenodd" clip-rule="evenodd" d="M676.887 1099.2C676.459 1098.95 680.641 1101.3 681.599 1101.83C683.195 1102.71 686.105 1105.29 688.174 1104.46C688.524 1104.32 689.317 1102.08 689.708 1101.61C692.639 1098.09 693.609 1097.93 697.817 1097.23C698.145 1097.17 701.043 1096.51 701.324 1096.79C702.887 1098.35 701.689 1105.99 701.324 1108.18C701.146 1109.25 701.104 1110.63 701.104 1111.69C701.104 1112.21 700.885 1113.74 700.885 1113.22C700.885 1107.32 710.738 1111.77 713.158 1110.16C713.554 1109.89 711.274 1106.15 711.186 1105.99C710.336 1104.43 710.166 1101.95 709.432 1100.73C708.961 1099.95 706.969 1100.63 707.021 1100.73C707.137 1100.96 714.584 1100.29 715.35 1100.29C718.046 1100.29 722.981 1102.77 725.65 1101.17C726.836 1100.46 727.288 1098.22 728.28 1097.23C728.63 1096.88 730.909 1095.54 730.909 1095.03C730.909 1094.85 722.086 1095.86 721.486 1095.91C720.758 1095.97 718.889 1096.52 719.294 1095.91C719.945 1094.93 737.881 1089.02 737.923 1088.9C738.26 1087.89 733.057 1085.67 732.225 1085.39C731.475 1085.14 731.042 1084.08 730.252 1084.08C726.121 1084.08 719.75 1089.8 714.254 1089.12C707.319 1088.25 700.45 1087.2 693.214 1087.58C691.92 1087.65 689.482 1088.54 688.174 1088.02C686.905 1087.51 687.06 1086.62 685.325 1086.49C683.058 1086.31 680.532 1086.93 678.311 1086.49C677.135 1086.25 668.108 1085.04 667.353 1086.05C667.288 1086.14 668.104 1093.22 668.669 1093.5C670.375 1094.35 681.628 1091.09 684.448 1091.09C685.251 1091.09 686.859 1090.29 686.859 1091.09C686.859 1092.62 679.037 1100.45 676.887 1099.2Z" fill="#543631"/>
<path fill-rule="evenodd" clip-rule="evenodd" d="M694.354 1090.88C694.667 1091.72 691.252 1089.1 690.654 1088.5C688.175 1086.02 685.414 1084.99 682.433 1083.23C673.949 1078.24 672.602 1063.67 677.337 1055.78C680.449 1050.59 687.394 1047.4 689.01 1041.47C689.531 1039.56 689.421 1026.96 689.996 1026.68C690.132 1026.61 690.323 1028.47 690.326 1028.48C690.521 1029.85 691.066 1031.14 691.64 1032.43C692.81 1035.06 698.051 1051.59 700.848 1050.19C703.821 1048.7 702.796 1043.62 702.985 1040.98C703.522 1033.47 704.572 1025.99 708.411 1019.28C708.915 1018.4 709.99 1013.98 710.877 1013.69C711.705 1013.41 711.22 1015.44 711.206 1015.5C710.103 1019.54 708.925 1023.8 708.576 1027.99C708.186 1032.67 707.217 1039.57 709.233 1043.94C711.042 1047.86 712.356 1049.68 712.356 1054.3C712.356 1056.79 708.541 1061.87 711.534 1063.67C718.871 1068.07 716.467 1047.8 716.467 1046.41C716.467 1044.66 716.73 1042.88 716.96 1041.15C717.07 1040.32 717.074 1033.86 717.618 1034.4C718.163 1034.95 717.802 1043.52 718.276 1045.42C720.832 1055.65 722.806 1064.27 721.071 1074.69C720.298 1079.32 723.978 1082.26 720.249 1086.52C715.946 1091.44 709.633 1094.19 702.821 1093.43C701.798 1093.32 694.077 1090.14 694.354 1090.88Z" fill="#E94420"/>
<path fill-rule="evenodd" clip-rule="evenodd" d="M628 1045.6C628 1006.06 661.392 974 702.582 974C743.774 974 777.165 1006.06 777.165 1045.6C777.165 1085.14 743.774 1117.2 702.582 1117.2C661.392 1117.2 628 1085.14 628 1045.6Z" fill="url(#paint17_radial_633_1257)"/>
<path fill-rule="evenodd" clip-rule="evenodd" d="M701.11 1083.36C701.11 1086.32 694.486 1082.04 693.933 1081.69C689.73 1079.06 687.248 1075.82 687.59 1070.67C687.916 1065.79 692.185 1062.33 693.432 1057.66C695.378 1050.36 693.893 1042.75 694.935 1035.46C695.55 1031.15 695.226 1027.85 696.771 1023.61C697.364 1021.98 698.317 1020.37 699.275 1018.93C699.47 1018.64 699.608 1017.93 699.608 1017.93C699.608 1017.93 698.958 1018.77 698.773 1019.27C697.755 1021.98 697.579 1024.88 697.773 1027.78C698.193 1034.1 702.446 1040.56 702.446 1046.14C702.446 1048.47 701.137 1060.94 703.447 1061.33C709.893 1062.4 709.711 1042.58 710.625 1038.63C711.155 1036.33 711.849 1034.04 712.961 1031.95C713.336 1031.25 713.887 1030.63 714.297 1029.95C714.44 1029.71 714.797 1029 714.797 1029.28C714.797 1030.47 713.323 1032.46 712.961 1033.62C712.134 1036.27 711.793 1039.21 711.793 1041.97C711.793 1047.21 714.611 1051.89 715.632 1056.99C717.405 1065.85 713.719 1068.26 711.125 1075.18C710.271 1077.46 711.688 1080.27 710.791 1082.36C708.484 1087.74 698.752 1084.17 696.103 1081.52" fill="#FDBD19" fill-opacity="0.768018"/>
<path fill-rule="evenodd" clip-rule="evenodd" d="M644.464 1095.05L644.119 1094.79L644.033 1094.45L644.205 1094.36H644.55" fill="#FDBD19" fill-opacity="0.768018"/>
<path fill-rule="evenodd" clip-rule="evenodd" d="M699.072 1090.67C699.436 1090.78 695.929 1090.93 695.132 1090.93C692.674 1090.93 689.824 1090.51 687.506 1089.74C679.587 1087.1 675.307 1082.45 671.831 1075C668.319 1067.47 673.199 1058.17 675.644 1051.11C676.457 1048.76 676.683 1046.48 677.085 1044.07C677.23 1043.2 677.382 1042.33 677.508 1041.45C677.533 1041.27 677.418 1040.32 677.339 1040.51C676.134 1043.53 677.254 1049.2 677.254 1052.46C677.254 1055.2 676.434 1058.04 676.661 1060.77C677.794 1074.36 684.044 1077.23 694.708 1083.05C696.494 1084.02 698.305 1086.18 699.199 1087.96C699.761 1089.09 699.069 1090.67 699.072 1090.67Z" fill="#FDBD19" fill-opacity="0.768018"/>
<path fill-rule="evenodd" clip-rule="evenodd" d="M703.968 1019.5C703.192 1020.76 703.907 1017.62 704.023 1017.04C704.401 1015.15 704.71 1011.97 706.106 1010.57C706.417 1010.26 707.093 1009.69 707.093 1009.69C707.093 1009.69 705.383 1012.04 705.229 1013.42C704.87 1016.65 705.703 1016.7 703.968 1019.5Z" fill="#FDBD19" fill-opacity="0.768018"/>
<path fill-rule="evenodd" clip-rule="evenodd" d="M682.812 1033.1C682.687 1033.17 682.71 1031.76 682.647 1031.51C681.861 1028.36 681.864 1026.17 683.195 1023.07C683.427 1022.53 683.809 1021.01 684.072 1021.53C684.396 1022.18 682.961 1024.74 682.867 1025.59C682.498 1028.91 686.278 1031.2 682.812 1033.1Z" fill="#FDBD19" fill-opacity="0.768018"/>
<path fill-rule="evenodd" clip-rule="evenodd" d="M724.249 1058.86C723.626 1058.05 724.792 1057.15 725.071 1056.17C725.32 1055.3 725.509 1054.48 725.509 1053.54C725.509 1052.97 725.256 1052.58 725.071 1053.32C725.055 1053.38 726.954 1062.35 724.249 1058.86Z" fill="#FDBD19" fill-opacity="0.768018"/>
<path fill-rule="evenodd" clip-rule="evenodd" d="M723.754 1082.37C723.349 1081.94 725.054 1079.57 725.289 1078.86C725.331 1078.74 725.41 1076.66 725.289 1076.78C724.713 1077.36 727.068 1085.92 723.754 1082.37Z" fill="#FDBD19" fill-opacity="0.768018"/>
<path fill-rule="evenodd" clip-rule="evenodd" d="M700.924 1112.46C700.968 1111.83 700.984 1111.17 701.222 1110.77C701.639 1110.08 703.076 1109.96 703.764 1109.61C706.416 1108.29 707.958 1110.59 710.301 1110.12C711.153 1109.95 711.574 1108.83 712.625 1109.25C713.065 1109.43 713.396 1109.69 713.497 1110.19C714.365 1114.54 707.159 1112.81 705.363 1113.17C704.132 1113.42 703.285 1114.76 701.949 1114.99C700.468 1115.23 700.891 1112.92 700.924 1112.46Z" fill="#80605B"/>
<path fill-rule="evenodd" clip-rule="evenodd" d="M667.06 1086.42C666.992 1086.64 667.076 1086.58 666.975 1087.28C666.83 1088.3 667.123 1093.79 668.918 1093.49C670.381 1093.25 669.373 1087.41 668.673 1086.48C667.724 1085.22 667.148 1086.13 667.06 1086.42Z" fill="#80605B"/>
<path fill-rule="evenodd" clip-rule="evenodd" d="M687.58 1103.96C686.123 1101.45 696.819 1092.35 698.531 1092.92C698.975 1093.06 696.617 1094.7 696.475 1094.79C695.065 1095.67 693.635 1096.56 692.363 1097.65C690.825 1098.97 688.399 1105.36 687.58 1103.96Z" fill="#80605B"/>
<path fill-rule="evenodd" clip-rule="evenodd" d="M926.121 952.16L711.286 998.82L873.749 1071.09L1011.41 987.101L926.121 952.16Z" fill="url(#paint18_linear_633_1257)"/>
<path fill-rule="evenodd" clip-rule="evenodd" d="M765.877 918.913L725.423 999.323L833.14 1042.62L765.877 918.913Z" fill="url(#paint19_linear_633_1257)"/>
<path fill-rule="evenodd" clip-rule="evenodd" d="M765.266 922.112H763.039L763.095 1015.06L764.903 1015.7L765.266 922.112Z" fill="black"/>
<path fill-rule="evenodd" clip-rule="evenodd" d="M711 999.185L725.449 999.303L765.239 922.526L762.57 917.471C762.57 917.471 720.847 992.467 719.115 995.145C717.384 997.822 711 999.185 711 999.185Z" fill="#594947"/>
<path fill-rule="evenodd" clip-rule="evenodd" d="M913.379 879L762.564 917.474C762.564 917.474 772.977 957.127 787.811 985.715C802.189 1013.43 833.871 1046.83 833.871 1046.83L983.505 976.313C983.505 976.313 956.813 954.635 941.344 930.294C925.876 905.953 913.379 879 913.379 879Z" fill="url(#paint20_linear_633_1257)"/>
<path fill-rule="evenodd" clip-rule="evenodd" d="M840.594 1040.95C840.594 1040.62 839.211 1040.36 837.503 1040.36C835.796 1040.36 834.411 1040.62 834.411 1040.95C834.411 1041.27 835.796 1041.53 837.503 1041.53C839.211 1041.53 840.594 1041.27 840.594 1040.95Z" fill="#2B2322"/>
<path fill-rule="evenodd" clip-rule="evenodd" d="M841.862 1036.86L832.879 1036.83C832.879 1036.83 834.279 1037.99 834.677 1038.98C835.075 1039.97 834.516 1040.89 834.516 1040.89C834.516 1040.89 835.799 1041.01 837.234 1041C838.668 1040.99 840.253 1040.84 840.253 1040.84C840.253 1040.84 839.746 1039.93 840.173 1038.91C840.601 1037.9 841.862 1036.86 841.862 1036.86Z" fill="black"/>
<path fill-rule="evenodd" clip-rule="evenodd" d="M841.917 1036.83C841.917 1036.57 839.893 1036.36 837.395 1036.36C834.897 1036.36 832.872 1036.57 832.872 1036.83C832.872 1037.09 834.897 1037.3 837.394 1037.3C839.892 1037.3 841.917 1037.09 841.917 1036.83Z" fill="#303030"/>
<path fill-rule="evenodd" clip-rule="evenodd" d="M834.877 1042.68L725.436 998.749L711.288 999.172L834.462 1047.12L834.877 1042.68Z" fill="#594947" fill-opacity="0.320957"/>
<path fill-rule="evenodd" clip-rule="evenodd" d="M980.051 975.779C980.051 975.591 979.246 975.439 978.254 975.439C977.261 975.439 976.457 975.591 976.457 975.779C976.457 975.966 977.261 976.118 978.254 976.118C979.246 976.118 980.051 975.966 980.051 975.779Z" fill="#2B2322"/>
<path fill-rule="evenodd" clip-rule="evenodd" d="M980.788 973.403L975.567 973.386C975.567 973.386 976.38 974.059 976.612 974.636C976.843 975.212 976.519 975.744 976.519 975.744C976.519 975.744 977.264 975.819 978.098 975.812C978.931 975.805 979.853 975.717 979.853 975.717C979.853 975.717 979.558 975.188 979.807 974.597C980.055 974.007 980.788 973.403 980.788 973.403Z" fill="black"/>
<path fill-rule="evenodd" clip-rule="evenodd" d="M980.82 973.388C980.82 973.236 979.643 973.113 978.191 973.113C976.74 973.111 975.563 973.232 975.563 973.383C975.562 973.534 976.739 973.657 978.191 973.658C979.643 973.659 980.819 973.538 980.82 973.388Z" fill="#303030"/>
<path fill-rule="evenodd" clip-rule="evenodd" d="M436.591 983.155L654.696 1029.81L499.136 1107.11L350 1018.1L436.591 983.155Z" fill="url(#paint21_linear_633_1257)"/>
<path fill-rule="evenodd" clip-rule="evenodd" d="M603.087 913.913L644.158 994.323L644.8 1029.72L538.197 1080.88L532.031 1038.7L603.087 913.913Z" fill="url(#paint22_linear_633_1257)"/>
<path fill-rule="evenodd" clip-rule="evenodd" d="M603.709 917.112H605.969L627.818 1038.24L605.599 1048.73L603.709 917.112Z" fill="black"/>
<path fill-rule="evenodd" clip-rule="evenodd" d="M606.657 917.574L603.126 916.36L620.193 995.97L627.817 1038.24C627.817 1038.24 630.371 1030.57 633.882 1026.86C637.392 1023.16 641.858 1023.42 641.858 1023.42C641.858 1023.42 633.554 1011.56 624.284 986.357C615.015 961.158 606.657 917.574 606.657 917.574Z" fill="url(#paint23_linear_633_1257)"/>
<path fill-rule="evenodd" clip-rule="evenodd" d="M658.8 994.185L644.13 994.303L603.736 917.525L606.445 912.471C606.445 912.471 648.803 987.467 650.561 990.144C652.319 992.822 658.8 994.185 658.8 994.185Z" fill="#594947"/>
<path fill-rule="evenodd" clip-rule="evenodd" d="M388.398 970.109L538.883 1026.95L538.222 1080.88L536.187 1079.91L391.681 1010.97L388.398 970.109Z" fill="url(#paint24_linear_633_1257)"/>
<path fill-rule="evenodd" clip-rule="evenodd" d="M453.34 874L606.451 912.474C606.451 912.474 595.88 952.127 580.82 980.715C566.223 1008.43 534.059 1041.83 534.059 1041.83L382.147 971.313C382.147 971.313 409.246 949.635 424.949 925.294C440.653 900.954 453.34 874 453.34 874Z" fill="#675552"/>
<path fill-rule="evenodd" clip-rule="evenodd" d="M500.183 1098.64C500.183 1098.32 501.588 1098.06 503.322 1098.06C505.055 1098.06 506.46 1098.32 506.46 1098.64C506.46 1098.96 505.055 1099.23 503.322 1099.23C501.588 1099.23 500.183 1098.96 500.183 1098.64Z" fill="#2B2322"/>
<path fill-rule="evenodd" clip-rule="evenodd" d="M498.896 1094.56L508.016 1094.53C508.016 1094.53 506.594 1095.69 506.19 1096.68C505.786 1097.67 506.354 1098.58 506.354 1098.58C506.354 1098.58 505.051 1098.71 503.594 1098.7C502.138 1098.69 500.529 1098.54 500.529 1098.54C500.529 1098.54 501.044 1097.63 500.611 1096.61C500.177 1095.6 498.896 1094.56 498.896 1094.56Z" fill="black"/>
<path fill-rule="evenodd" clip-rule="evenodd" d="M498.84 1094.53C498.84 1094.27 500.895 1094.06 503.431 1094.06C505.967 1094.06 508.023 1094.26 508.023 1094.52C508.023 1094.78 505.968 1094.99 503.432 1095C500.896 1095 498.84 1094.79 498.84 1094.53Z" fill="#303030"/>
<path fill-rule="evenodd" clip-rule="evenodd" d="M365.501 1025.64C365.501 1025.45 366.318 1025.3 367.325 1025.3C368.333 1025.3 369.149 1025.45 369.149 1025.64C369.149 1025.82 368.333 1025.98 367.325 1025.98C366.318 1025.98 365.501 1025.82 365.501 1025.64Z" fill="#2B2322"/>
<path fill-rule="evenodd" clip-rule="evenodd" d="M364.753 1023.26L370.053 1023.24C370.053 1023.24 369.227 1023.92 368.992 1024.49C368.757 1025.07 369.087 1025.6 369.087 1025.6C369.087 1025.6 368.33 1025.68 367.484 1025.67C366.637 1025.66 365.702 1025.57 365.702 1025.57C365.702 1025.57 366.001 1025.04 365.749 1024.45C365.497 1023.86 364.753 1023.26 364.753 1023.26Z" fill="black"/>
<path fill-rule="evenodd" clip-rule="evenodd" d="M364.72 1023.24C364.72 1023.09 365.915 1022.97 367.389 1022.97C368.862 1022.97 370.057 1023.09 370.057 1023.24C370.057 1023.39 368.863 1023.51 367.389 1023.51C365.915 1023.52 364.72 1023.4 364.72 1023.24Z" fill="#303030"/>
<path fill-rule="evenodd" clip-rule="evenodd" d="M657.718 1026.14C657.718 1025.82 659.123 1025.56 660.857 1025.56C662.59 1025.56 663.995 1025.82 663.995 1026.14C663.995 1026.47 662.59 1026.73 660.857 1026.73C659.123 1026.73 657.718 1026.47 657.718 1026.14Z" fill="#2B2322"/>
<path fill-rule="evenodd" clip-rule="evenodd" d="M656.431 1022.06L665.551 1022.03C665.551 1022.03 664.13 1023.19 663.726 1024.18C663.321 1025.17 663.888 1026.08 663.888 1026.08C663.888 1026.08 662.586 1026.21 661.13 1026.2C659.674 1026.19 658.064 1026.04 658.064 1026.04C658.064 1026.04 658.579 1025.13 658.145 1024.11C657.712 1023.1 656.431 1022.06 656.431 1022.06Z" fill="black"/>
<path fill-rule="evenodd" clip-rule="evenodd" d="M656.375 1022.03C656.375 1021.77 658.43 1021.56 660.966 1021.56C663.502 1021.56 665.558 1021.77 665.558 1022.03C665.558 1022.29 663.503 1022.5 660.967 1022.5C658.432 1022.5 656.375 1022.29 656.375 1022.03Z" fill="#303030"/>
<path fill-rule="evenodd" clip-rule="evenodd" d="M529.292 1036.23C529.292 1034.97 530.734 1033.96 532.514 1033.96C534.294 1033.96 535.736 1034.97 535.736 1036.23C535.736 1037.49 534.294 1038.5 532.514 1038.5C530.734 1038.5 529.292 1037.49 529.292 1036.23Z" fill="#303030"/>
<path fill-rule="evenodd" clip-rule="evenodd" d="M386.21 971.413C386.21 970.728 387.121 970.172 388.245 970.172C389.369 970.172 390.28 970.728 390.28 971.413C390.28 972.099 389.369 972.654 388.245 972.654C387.121 972.654 386.21 972.099 386.21 971.413Z" fill="#303030"/>
<path fill-rule="evenodd" clip-rule="evenodd" d="M531.136 1036.84C531.512 1036.36 529.986 1036.7 529.695 1036.84C528.533 1037.42 525.653 1040.3 527.454 1041.65C528.27 1042.26 531.269 1041.19 530.442 1040.36C530.261 1040.18 530.22 1040.85 530.015 1041C529.662 1041.27 528.911 1041.53 528.52 1041.22C527.205 1040.17 528.381 1037.87 529.802 1037.59C530.11 1037.53 530.76 1037.77 530.975 1037.7C531.194 1037.62 530.98 1037.04 531.136 1036.84Z" fill="black"/>
<path d="M527.757 1040.93L504.631 1097.37" stroke="black" stroke-width="0.000995259" stroke-miterlimit="10" stroke-linecap="round" stroke-linejoin="round"/>
<path fill-rule="evenodd" clip-rule="evenodd" d="M388.156 970.878C388.446 970.465 387.269 970.754 387.044 970.878C386.146 971.373 383.923 973.822 385.313 974.972C385.943 975.494 388.259 974.585 387.621 973.88C387.481 973.725 387.45 974.295 387.291 974.426C387.018 974.651 386.438 974.874 386.137 974.608C385.121 973.711 386.029 971.757 387.126 971.515C387.364 971.462 387.867 971.667 388.033 971.606C388.202 971.544 388.037 971.05 388.156 970.878Z" fill="black"/>
<path d="M385.547 974.358L368.139 1024.39" stroke="black" stroke-width="0.000995259" stroke-miterlimit="10" stroke-linecap="round" stroke-linejoin="round"/>
<path d="M652.637 994.549L660.709 1023.94" stroke="black" stroke-width="0.000995259" stroke-miterlimit="10" stroke-linecap="round" stroke-linejoin="round"/>
<path fill-rule="evenodd" clip-rule="evenodd" d="M471.524 909.175L537.958 927.457C537.958 927.457 533.371 946.3 526.837 959.885C520.504 973.053 506.547 988.925 506.547 988.925L439.137 962.407C439.137 962.407 449.742 951.755 456.556 940.189C463.37 928.623 471.524 909.175 471.524 909.175Z" fill="#544846" stroke="black" stroke-width="0.000995259" stroke-miterlimit="10" stroke-linecap="round" stroke-linejoin="round"/>
<path fill-rule="evenodd" clip-rule="evenodd" d="M526.837 959.885C526.837 959.885 522.241 968.256 517.169 975.516C512.096 982.776 506.547 988.925 506.547 988.925L439.137 962.407C439.137 962.407 443.408 959.242 451.368 948.397C459.312 937.575 526.837 959.885 526.837 959.885Z" fill="url(#paint25_linear_633_1257)"/>
<path fill-rule="evenodd" clip-rule="evenodd" d="M444.595 946.36C444.595 946.36 451.647 938.343 456.511 936.787C461.376 935.23 527.017 960.12 527.017 960.12C527.017 960.12 515.37 955.855 517.315 965.973C504.293 964.077 444.595 946.36 444.595 946.36Z" fill="url(#paint26_linear_633_1257)"/>
<path fill-rule="evenodd" clip-rule="evenodd" d="M569.137 950.151C568.904 950.291 568.672 950.43 568.439 950.57L569.137 950.151Z" fill="#544846"/>
<path fill-rule="evenodd" clip-rule="evenodd" d="M519.435 956.329C519.528 956.423 519.622 956.516 519.716 956.61L519.435 956.329Z" fill="#544846"/>
</g>
<defs>
<linearGradient id="paint0_linear_633_1257" x1="960" y1="72.2889" x2="960" y2="677.464" gradientUnits="userSpaceOnUse">
<stop stop-color="#1AB7EA"/>
<stop offset="1" stop-color="#FFF9D4"/>
</linearGradient>
<linearGradient id="paint1_linear_633_1257" x1="375.78" y1="457.743" x2="227.386" y2="157.953" gradientUnits="userSpaceOnUse">
<stop stop-color="#FFF9D4"/>
<stop offset="1" stop-color="#1AB7EA"/>
</linearGradient>
<linearGradient id="paint2_linear_633_1257" x1="298.54" y1="355.669" x2="234.946" y2="130.545" gradientUnits="userSpaceOnUse">
<stop stop-color="#FFF9D4"/>
<stop offset="1" stop-color="#1AB7EA"/>
</linearGradient>
<linearGradient id="paint3_linear_633_1257" x1="1011.02" y1="453.323" x2="1420.04" y2="453.323" gradientUnits="userSpaceOnUse">
<stop stop-color="#FFF9D4" stop-opacity="0.6802"/>
<stop offset="1" stop-color="#1AB7EA"/>
</linearGradient>
<linearGradient id="paint4_linear_633_1257" x1="1038.9" y1="473.254" x2="1320.55" y2="473.254" gradientUnits="userSpaceOnUse">
<stop stop-color="#FFF9D4" stop-opacity="0.491"/>
<stop offset="1" stop-color="#1AB7EA"/>
</linearGradient>
<linearGradient id="paint5_linear_633_1257" x1="1148.85" y1="600.287" x2="1863.21" y2="-59.4464" gradientUnits="userSpaceOnUse">
<stop offset="0.1457" stop-color="#1DA1DC" stop-opacity="0.3"/>
<stop offset="0.7671" stop-color="#D5ECFB" stop-opacity="0.69"/>
</linearGradient>
<linearGradient id="paint6_linear_633_1257" x1="1056.71" y1="1125.48" x2="1064.57" y2="1125.48" gradientUnits="userSpaceOnUse">
<stop stop-color="#75F2F4" stop-opacity="0"/>
<stop offset="0.9566" stop-color="#4373DC"/>
</linearGradient>
<linearGradient id="paint7_linear_633_1257" x1="954.874" y1="133.34" x2="965.245" y2="717.248" gradientUnits="userSpaceOnUse">
<stop stop-color="#91E069"/>
<stop offset="0.8512" stop-color="#35794B"/>
</linearGradient>
<linearGradient id="paint8_linear_633_1257" x1="1274.56" y1="423.829" x2="1289.34" y2="954.552" gradientUnits="userSpaceOnUse">
<stop stop-color="#84CE5F"/>
<stop offset="0.7851" stop-color="#247D44"/>
</linearGradient>
<linearGradient id="paint9_linear_633_1257" x1="1.76308e-05" y1="640.268" x2="1092.92" y2="640.268" gradientUnits="userSpaceOnUse">
<stop stop-color="#84CE5F"/>
<stop offset="0.7851" stop-color="#216D3C"/>
</linearGradient>
<linearGradient id="paint10_linear_633_1257" x1="6.10352e-05" y1="718.038" x2="1210.1" y2="718.038" gradientUnits="userSpaceOnUse">
<stop stop-color="#84CE5F"/>
<stop offset="0.7851" stop-color="#216D3C"/>
</linearGradient>
<linearGradient id="paint11_linear_633_1257" x1="960" y1="1939.95" x2="960" y2="898.986" gradientUnits="userSpaceOnUse">
<stop stop-color="#005CCA" stop-opacity="0"/>
<stop offset="0.7671" stop-color="#3778FF"/>
</linearGradient>
<linearGradient id="paint12_linear_633_1257" x1="623.787" y1="830.017" x2="667.884" y2="830.017" gradientUnits="userSpaceOnUse">
<stop stop-color="#84CE5F"/>
<stop offset="0.7851" stop-color="#216D3C"/>
</linearGradient>
<linearGradient id="paint13_linear_633_1257" x1="272.874" y1="749.22" x2="1069.08" y2="749.22" gradientUnits="userSpaceOnUse">
<stop stop-color="#84CE5F"/>
<stop offset="0.7851" stop-color="#216D3C"/>
</linearGradient>
<linearGradient id="paint14_linear_633_1257" x1="957.059" y1="716.297" x2="967.033" y2="1284.33" gradientUnits="userSpaceOnUse">
<stop stop-color="#84CE5F"/>
<stop offset="0.7851" stop-color="#0C5C28"/>
</linearGradient>
<linearGradient id="paint15_linear_633_1257" x1="228.192" y1="1092.77" x2="1571.28" y2="1215.55" gradientUnits="userSpaceOnUse">
<stop stop-color="#75F2F4" stop-opacity="0.1618"/>
<stop offset="0.9566" stop-color="#52BDFF" stop-opacity="0.2495"/>
</linearGradient>
<linearGradient id="paint16_linear_633_1257" x1="1.76334e-05" y1="1114.19" x2="1920" y2="1114.19" gradientUnits="userSpaceOnUse">
<stop stop-color="#CEBB5F"/>
<stop offset="0.9566" stop-color="#F2EFA4"/>
</linearGradient>
<radialGradient id="paint17_radial_633_1257" cx="0" cy="0" r="1" gradientUnits="userSpaceOnUse" gradientTransform="translate(702.583 1045.6) scale(74.5821 66.9722)">
<stop stop-color="#FDDF19" stop-opacity="0.445946"/>
<stop offset="1" stop-color="white" stop-opacity="0.01"/>
</radialGradient>
<linearGradient id="paint18_linear_633_1257" x1="875.947" y1="1053.63" x2="835.767" y2="960.537" gradientUnits="userSpaceOnUse">
<stop stop-color="#594947" stop-opacity="0"/>
<stop offset="1" stop-color="#2B2322"/>
</linearGradient>
<linearGradient id="paint19_linear_633_1257" x1="761.203" y1="1030.53" x2="762.404" y2="928.206" gradientUnits="userSpaceOnUse">
<stop stop-color="#5F4D42"/>
<stop offset="1" stop-color="#191817"/>
</linearGradient>
<linearGradient id="paint20_linear_633_1257" x1="893.084" y1="1028.52" x2="841.854" y2="882.501" gradientUnits="userSpaceOnUse">
<stop stop-color="#675552"/>
<stop offset="0.442149" stop-color="#807464"/>
<stop offset="1" stop-color="#8F6348"/>
</linearGradient>
<linearGradient id="paint21_linear_633_1257" x1="487.529" y1="1084.63" x2="527.292" y2="991.094" gradientUnits="userSpaceOnUse">
<stop stop-color="#594947" stop-opacity="0"/>
<stop offset="1" stop-color="#2B2322"/>
</linearGradient>
<linearGradient id="paint22_linear_633_1257" x1="606.743" y1="1066.01" x2="603.48" y2="925.685" gradientUnits="userSpaceOnUse">
<stop stop-color="#685142"/>
<stop offset="1" stop-color="#191817"/>
</linearGradient>
<linearGradient id="paint23_linear_633_1257" x1="639.314" y1="974.795" x2="597.084" y2="993.29" gradientUnits="userSpaceOnUse">
<stop stop-color="#7D694E"/>
<stop offset="1"/>
</linearGradient>
<linearGradient id="paint24_linear_633_1257" x1="461.942" y1="1039.53" x2="475.619" y2="980.589" gradientUnits="userSpaceOnUse">
<stop stop-color="#544846"/>
<stop offset="1"/>
</linearGradient>
<linearGradient id="paint25_linear_633_1257" x1="482.828" y1="975.191" x2="490.826" y2="949.596" gradientUnits="userSpaceOnUse">
<stop stop-color="#675552"/>
<stop offset="1"/>
</linearGradient>
<linearGradient id="paint26_linear_633_1257" x1="481.106" y1="944.921" x2="475.095" y2="960.27" gradientUnits="userSpaceOnUse">
<stop stop-color="#756E6C"/>
<stop offset="1" stop-color="#A78A74"/>
</linearGradient>
<clipPath id="clip0_633_1257">
<rect width="1920" height="1380" fill="white"/>
</clipPath>
</defs>
</svg>
