<svg width="1920" height="884" viewBox="0 0 1920 884" fill="none" xmlns="http://www.w3.org/2000/svg">
<g clip-path="url(#clip0_645_325)">
<path d="M1920 0H0V459H1920V0Z" fill="url(#paint0_linear_645_325)"/>
<path d="M529.171 129.584C524.549 129.199 500.729 128.814 464.466 128.429C374.163 127.467 207.423 126.505 70.7248 126.12C38.0168 126.12 6.90853 125.927 -21 125.927V87.6258C-14.9561 88.0107 -8.91223 88.2032 -2.86834 88.5881C10.6415 89.358 24.3291 89.9354 38.1945 90.1279C69.125 90.3203 100.233 87.6258 129.386 75.6927C130.275 75.3077 131.875 74.3454 134.186 72.9981C149.651 63.7595 194.447 34.6966 232.132 26.4204C275.328 16.9894 302.17 38.1611 302.17 38.1611C302.17 38.1611 367.764 86.2785 372.741 89.1655C392.473 101.099 420.915 99.7514 442.779 100.906C471.932 102.446 498.596 100.136 526.505 109.567C552.458 118.228 554.058 131.894 529.171 129.584Z" fill="url(#paint1_linear_645_325)"/>
<path d="M532.726 144.125C533.438 162.217 484.909 156.25 478.154 155.865C456.822 155.096 203.335 159.715 203.335 159.715C203.335 159.715 148.762 158.752 94.7226 157.79C50.9933 157.02 7.44178 156.25 -6.77912 156.058C-11.5787 156.058 -16.2005 156.058 -20.8223 156.058V37.8815C-9.44554 35.9568 1.93118 34.9945 13.6634 34.0321C25.0401 33.0698 36.7724 33.8396 48.1491 34.6095C74.4578 36.3417 96.678 39.4213 117.832 57.5134C123.698 62.5176 129.031 67.7143 134.186 72.7185C150.895 89.0784 166.716 104.284 192.669 105.053C219.689 105.823 244.22 84.8441 271.417 89.8483C278.883 91.1956 304.125 111.02 325.812 116.024C347.499 121.028 377.719 106.208 414.871 110.25C440.646 112.945 455.223 122.761 464.466 128.15C468.555 130.652 471.577 132.192 474.065 131.999C487.042 131.422 499.485 130.267 512.639 130.652C520.283 130.844 532.193 134.309 532.726 144.125Z" fill="url(#paint2_linear_645_325)"/>
<path d="M1920 35.443V237.392C1915.14 237.853 1910.29 238.314 1905.26 238.776L1920 239.006V239.929C1902.59 240.044 1885.34 240.16 1867.92 239.929C1846.49 239.698 1806.14 240.39 1753.56 241.428C1560.99 245.119 1206.85 253.654 1043.92 242.351C836.622 227.934 1024.16 190.336 1038.39 182.493C1050.12 175.919 1062.17 168.999 1076.07 164.616C1112.24 153.083 1161.47 153.429 1200.32 154.928C1242.51 156.543 1286.05 159.426 1327.07 150.546C1349.51 145.702 1369.1 136.706 1389.53 128.978C1447.3 107.18 1503.56 83.883 1565.35 67.5057C1589.13 61.2777 1614.24 57.587 1638.86 53.2043C1681.89 45.477 1726.6 39.4797 1770.97 36.2503C1773.15 36.135 1775.33 35.9043 1777.5 35.789C1821.71 33.021 1867.76 34.059 1911.96 34.9817C1914.47 35.2123 1917.32 35.3277 1920 35.443Z" fill="url(#paint3_linear_645_325)"/>
<path d="M1056.79 405.159C1061.95 407.084 1059.28 405.544 1064.61 409.971L1056.79 405.159Z" fill="url(#paint4_linear_645_325)"/>
<path d="M1920 322H0V843H1920V322Z" fill="url(#paint5_linear_645_325)"/>
<path d="M623.942 111.258C659.672 113.183 648.296 114.337 623.942 111.258V111.258Z" fill="url(#paint6_linear_645_325)"/>
<path d="M1920 208.539V380.588C1877.51 390.84 1734.76 432.426 1717.16 433.006C1704.36 433.393 1692.09 433.78 1680.71 434.263C1640.53 435.714 1597.51 438.422 1555.38 442.677C1545.6 443.644 1536 444.708 1526.4 445.965C1525.51 446.062 1336 349.737 1010.84 387.165C793.956 412.213 515.2 491.42 505.422 491.516C469.689 491.807 434.133 492 398.756 492H398.222C385.244 492 380.267 478.944 365.867 479.428C365.867 479.428 316.267 457.474 294.933 454.669C270.578 451.478 162.844 437.938 127.467 434.36C101.333 431.845 14.0444 450.994 10.4889 450.414C7.11111 449.834 3.55556 449.35 0 448.963V221.208C0.711111 221.111 1.42222 221.014 2.13333 220.918C111.822 206.701 219.022 198.094 332.089 206.024C358.578 207.862 384.178 211.15 409.422 215.502C419.556 217.243 429.689 219.177 439.644 221.208C458.133 225.076 476.444 229.332 494.4 233.974C515.022 239.293 535.111 245.386 555.378 251.672C557.333 252.349 559.467 252.929 561.422 253.606C599.644 265.598 637.689 278.074 678.4 286.198C704.356 291.42 731.556 294.999 760.533 295.579C868.978 297.9 970.844 271.691 1074.49 256.411C1084.44 254.96 1094.22 253.606 1104.18 252.349C1105.96 252.156 1107.91 251.865 1109.69 251.672C1190.04 241.904 1273.07 236.682 1354.31 229.912C1484.44 219.08 1615.11 208.152 1746.84 205.927C1801.78 205.057 1861.69 204.67 1920 208.539Z" fill="url(#paint7_linear_645_325)"/>
<path d="M0.177812 466V462.589C3.73404 461.167 7.11246 459.746 10.6687 458.466C80.9043 432.453 161.097 426.625 236.489 446.668C315.793 467.848 394.564 518.879 482.403 513.051C550.682 508.502 614.695 474.529 673.195 449.369C725.293 426.91 779.348 410.989 834.825 395.495C852.429 390.52 870.388 380.854 888.702 378.438C914.307 375.026 940.267 367.919 966.228 366.782C997.345 365.502 1029.71 366.071 1060.47 363.228C1096.56 359.958 1138.53 353.562 1174.98 356.973C1201.12 359.39 1227.26 362.659 1253.57 366.497C1294.29 372.325 1334.83 379.717 1374.84 387.819C1386.04 390.094 1397.24 392.368 1408.27 394.784C1426.94 398.765 1434.58 405.872 1434.23 413.406C1434.05 415.396 1433.34 417.244 1432.27 419.234C1424.09 433.022 1391.38 445.815 1351.01 441.409C1301.4 436.007 1250.73 434.301 1200.58 434.301C1190.8 434.301 1158.26 434.159 1155.6 444.252C1150.09 466 1187.6 468.985 1206.1 472.965C1235.26 479.22 1314.74 484.906 1363.64 488.317C1380 489.454 1392.8 490.307 1399.2 490.876C1412 492.013 1480.1 496.988 1468.72 519.589C1458.94 539.206 1358.48 517.173 1338.57 512.482C1312.96 506.37 1287 501.679 1260.86 498.125C1186 487.891 1108.83 486.469 1033.26 486.469C1013.53 486.469 970.673 486.327 947.38 497.415C940.801 500.542 935.822 504.664 933.333 509.781C923.553 530.819 974.763 529.255 990.588 530.393C1045.18 534.373 1100.12 526.128 1154.53 531.245C1163.6 532.098 1230.28 538.495 1219.61 549.156C1209.83 559.248 1150.8 552.852 1120.92 558.111C1001.08 579.433 953.781 585.688 894.036 587.82C854.029 589.241 750.72 592.084 746.097 576.875C742.541 565.503 794.995 567.066 801.041 567.066C846.561 567.066 890.48 573.321 935.822 573.321C946.135 573.321 967.295 573.321 972.807 564.366C983.831 546.739 925.154 541.054 916.619 540.201C868.254 535.368 816.511 533.093 769.568 523.143C765.123 522.148 747.342 515.751 739.518 509.781C737.029 507.791 735.606 505.943 735.962 504.238C737.918 493.008 762.812 485.616 774.191 483.626C814.199 476.519 856.163 476.661 895.459 468.417C905.061 466.426 951.292 453.207 939.201 438.85C921.419 417.528 859.008 424.493 833.758 430.748C819.356 434.301 731.872 460.172 641.722 484.763C641.722 484.763 641.722 484.763 641.544 484.763C641.544 484.763 641.544 484.763 641.366 484.763C593.357 497.841 544.637 510.492 505.696 519.163C469.067 527.407 440.973 532.098 430.66 530.393C418.391 528.26 408.255 524.422 399.009 519.874C384.429 512.766 371.982 503.669 355.445 496.277C332.33 486.043 292.5 481.778 256.938 483.484H256.76C236.312 484.479 217.286 487.322 203.772 492.013C199.505 493.577 195.593 495.282 192.57 497.272C176.567 507.365 275.608 506.37 265.473 519.732C260.85 525.844 227.954 523.001 220.486 522.432C208.395 521.579 112.91 495.282 93.7067 491.871C64.7234 486.896 25.9605 489.17 0 501.537V466H0.177812Z" fill="url(#paint8_linear_645_325)"/>
<path d="M1920 347V393.675C1658.11 451.785 1667.89 530.082 1380.57 412.695C1299.85 387.374 1201 382.706 1113.53 385.39C869.236 397.876 807.897 428.448 605.745 489.358C343.321 563.105 349.721 477.456 145.08 456.219C98.6758 451.785 47.1155 453.652 0 463.57V418.763C403.771 358.202 231.488 547.468 708.51 406.86C809.142 383.756 916.352 372.438 1021.61 360.419C1465.56 326.696 1473.2 505.344 1817.06 367.654C1849.95 355.868 1880.89 347.933 1920 347Z" fill="url(#paint9_linear_645_325)"/>
</g>
<defs>
<linearGradient id="paint0_linear_645_325" x1="960" y1="43.7162" x2="960" y2="409.691" gradientUnits="userSpaceOnUse">
<stop stop-color="#1AB7EA"/>
<stop offset="1" stop-color="#FFF9D4"/>
</linearGradient>
<linearGradient id="paint1_linear_645_325" x1="354.923" y1="342.244" x2="206.556" y2="42.4932" gradientUnits="userSpaceOnUse">
<stop stop-color="#FFF9D4"/>
<stop offset="1" stop-color="#1AB7EA"/>
</linearGradient>
<linearGradient id="paint2_linear_645_325" x1="277.69" y1="239.906" x2="214.109" y2="14.8137" gradientUnits="userSpaceOnUse">
<stop stop-color="#FFF9D4"/>
<stop offset="1" stop-color="#1AB7EA"/>
</linearGradient>
<linearGradient id="paint3_linear_645_325" x1="1193.66" y1="393.83" x2="1594.81" y2="-188.58" gradientUnits="userSpaceOnUse">
<stop offset="0.1457" stop-color="#1DA1DC" stop-opacity="0.3"/>
<stop offset="0.7671" stop-color="#D5ECFB" stop-opacity="0.69"/>
</linearGradient>
<linearGradient id="paint4_linear_645_325" x1="1056.79" y1="407.604" x2="1064.65" y2="407.604" gradientUnits="userSpaceOnUse">
<stop stop-color="#75F2F4" stop-opacity="0"/>
<stop offset="0.9566" stop-color="#4373DC"/>
</linearGradient>
<linearGradient id="paint5_linear_645_325" x1="960" y1="842.976" x2="960" y2="322.009" gradientUnits="userSpaceOnUse">
<stop stop-color="#005CCA" stop-opacity="0"/>
<stop offset="0.7671" stop-color="#3778FF"/>
</linearGradient>
<linearGradient id="paint6_linear_645_325" x1="623.907" y1="112.184" x2="668" y2="112.184" gradientUnits="userSpaceOnUse">
<stop stop-color="#84CE5F"/>
<stop offset="0.7851" stop-color="#216D3C"/>
</linearGradient>
<linearGradient id="paint7_linear_645_325" x1="957.059" y1="230.11" x2="959.577" y2="515.555" gradientUnits="userSpaceOnUse">
<stop stop-color="#84CE5F"/>
<stop offset="0.7851" stop-color="#0C5C28"/>
</linearGradient>
<linearGradient id="paint8_linear_645_325" x1="228.413" y1="412.808" x2="1562.53" y2="577.988" gradientUnits="userSpaceOnUse">
<stop stop-color="#75F2F4" stop-opacity="0.1618"/>
<stop offset="0.9566" stop-color="#52BDFF" stop-opacity="0.2495"/>
</linearGradient>
<linearGradient id="paint9_linear_645_325" x1="-0.177794" y1="432.887" x2="1920" y2="432.887" gradientUnits="userSpaceOnUse">
<stop stop-color="#CEBB5F"/>
<stop offset="0.9566" stop-color="#F2EFA4"/>
</linearGradient>
<clipPath id="clip0_645_325">
<rect width="1920" height="884" fill="white"/>
</clipPath>
</defs>
</svg>
