<svg width="1920" height="169" viewBox="0 0 1920 169" fill="none" xmlns="http://www.w3.org/2000/svg">
<g clip-path="url(#clip0_288_244)">
<path d="M1920 169H0V0C0 0 92.7 69.4 129.7 76.7C176.8 86 272 43.2 319.7 49C371 55.3 459.5 124.8 511.2 127.2C554.4 129.2 633.4 75.7 676.6 76.7C728.2 77.9 819.7 141.8 871.2 145.9C935.6 151.1 1060.9 98 1125.5 99.5C1177 100.7 1274.7 146.7 1326.2 145.9C1386 144.9 1497.7 85.4 1557.5 84.5C1604.7 83.8 1695 136.4 1741.3 127.2C1795.1 116.6 1920 0 1920 0V169Z" fill="url(#paint0_linear_288_244)"/>
<path d="M1920 131.181V174.881H0V58.1813C0 58.1813 39.6 19.6813 74 16.1813C129 10.4813 328.5 141.181 392.9 131.181C412.3 128.181 420 117.481 439.4 114.481C473.8 109.181 688.9 150.881 753.8 143.681C784.8 140.181 890 93.9813 920.9 90.1813C965.6 84.7813 1205.1 140.681 1276.6 131.181C1320.3 125.381 1389.2 77.9813 1435.6 89.3813C1482 100.781 1625.4 153.381 1733 143.581C1761.2 140.981 1776.2 96.9813 1829 92.4813C1881.8 88.0813 1911.7 116.381 1920 131.181Z" fill="url(#paint1_linear_288_244)"/>
</g>
<defs>
<linearGradient id="paint0_linear_288_244" x1="960" y1="169.031" x2="960" y2="-30.2979" gradientUnits="userSpaceOnUse">
<stop stop-color="#84CE5F"/>
<stop offset="0.7851" stop-color="#0C5C28"/>
</linearGradient>
<linearGradient id="paint1_linear_288_244" x1="960" y1="174.881" x2="960" y2="-23.6187" gradientUnits="userSpaceOnUse">
<stop offset="0.21875" stop-color="#33813A"/>
<stop offset="1" stop-color="#80CB5E"/>
</linearGradient>
<clipPath id="clip0_288_244">
<rect width="1920" height="169" fill="white"/>
</clipPath>
</defs>
</svg>
