<svg width="46" height="46" viewBox="0 0 46 46" fill="none" xmlns="http://www.w3.org/2000/svg">
<path d="M19 20V15M23 43C34.046 43 43 34.046 43 23C43 11.954 34.046 3 23 3C11.954 3 3 11.954 3 23C3 34.046 11.954 43 23 43ZM27 20V15V20Z" stroke="#33813A" stroke-width="5" stroke-linecap="round" stroke-linejoin="round"/>
<path d="M23 43V31M23 31C25.1217 31 27.1566 30.1571 28.6569 28.6569C30.1571 27.1566 31 25.1217 31 23V20H15V23C15 25.1217 15.8429 27.1566 17.3431 28.6569C18.8434 30.1571 20.8783 31 23 31Z" stroke="#33813A" stroke-width="5" stroke-linecap="round" stroke-linejoin="round"/>
</svg>
