<svg width="50" height="50" viewBox="0 0 50 50" fill="none" xmlns="http://www.w3.org/2000/svg">
<path d="M24.0068 44C23.6277 44 23.2641 43.8683 22.996 43.6339C22.7279 43.3995 22.5773 43.0815 22.5773 42.75V39.5175L20.7304 41.135C20.462 41.3694 20.0981 41.5009 19.7187 41.5007C19.3394 41.5005 18.9757 41.3685 18.7077 41.1338C18.4396 40.899 18.2892 40.5808 18.2895 40.2491C18.2897 39.9174 18.4407 39.5994 18.7091 39.365L22.5773 35.9825V26.165L12.8568 31.0725L11.4387 35.6975C11.3401 36.0177 11.1001 36.2906 10.7714 36.4561C10.4428 36.6216 10.0524 36.6662 9.68615 36.58C9.31991 36.4938 9.00784 36.2839 8.81857 35.9965C8.62931 35.7091 8.57836 35.3677 8.67693 35.0475L9.35451 32.8425L6.15245 34.4575C5.8243 34.6206 5.43567 34.6637 5.07137 34.5772C4.70708 34.4907 4.39669 34.2817 4.20795 33.9959C4.0192 33.71 3.96742 33.3705 4.06391 33.0514C4.16039 32.7322 4.39731 32.4594 4.72296 32.2925L7.92502 30.6775L5.39768 30.085C5.21634 30.0423 5.04638 29.9688 4.89753 29.8687C4.74867 29.7686 4.62382 29.6438 4.5301 29.5015C4.43639 29.3592 4.37564 29.2022 4.35134 29.0393C4.32704 28.8765 4.33965 28.7111 4.38846 28.5525C4.43726 28.3939 4.52131 28.2453 4.6358 28.1152C4.75029 27.985 4.89298 27.8758 5.05572 27.7939C5.21846 27.7119 5.39806 27.6588 5.58428 27.6375C5.77049 27.6163 5.95967 27.6273 6.14101 27.67L11.4244 28.9075L21.1478 24L11.4273 19.0925L6.13815 20.33C5.7743 20.4093 5.38939 20.3604 5.06638 20.1939C4.74337 20.0273 4.50813 19.7564 4.41137 19.4396C4.31461 19.1229 4.36408 18.7855 4.54911 18.5003C4.73414 18.2151 5.03992 18.0049 5.40054 17.915L7.92502 17.3225L4.72296 15.7075C4.55907 15.626 4.41524 15.517 4.29973 15.3867C4.18423 15.2564 4.09933 15.1075 4.04994 14.9484C4.00054 14.7893 3.98763 14.6232 4.01192 14.4597C4.03622 14.2963 4.09726 14.1386 4.19152 13.9958C4.28579 13.8531 4.41141 13.728 4.56117 13.6279C4.71092 13.5278 4.88185 13.4545 5.06411 13.4124C5.24637 13.3702 5.43636 13.36 5.62314 13.3824C5.80993 13.4047 5.98981 13.4591 6.15245 13.5425L9.35451 15.1575L8.67693 12.95C8.62491 12.7904 8.60973 12.6234 8.63229 12.4587C8.65484 12.294 8.71468 12.1348 8.8083 11.9905C8.90193 11.8462 9.02747 11.7196 9.1776 11.6182C9.32774 11.5167 9.49947 11.4424 9.68278 11.3996C9.86609 11.3568 10.0573 11.3463 10.2453 11.3688C10.4333 11.3913 10.6143 11.4463 10.7777 11.5305C10.9412 11.6148 11.0838 11.7267 11.1973 11.8597C11.3107 11.9926 11.3928 12.144 11.4387 12.305L12.8539 16.9275L22.5773 21.835V12.0175L18.7091 8.635C18.5762 8.51894 18.4707 8.38113 18.3987 8.22944C18.3267 8.07774 18.2896 7.91513 18.2895 7.75088C18.2893 7.58664 18.3262 7.42398 18.3979 7.2722C18.4697 7.12041 18.5749 6.98247 18.7077 6.86625C18.8404 6.75003 18.998 6.65781 19.1715 6.59485C19.3449 6.53189 19.5309 6.49942 19.7187 6.4993C19.9066 6.49919 20.0926 6.53142 20.2662 6.59417C20.4397 6.65692 20.5975 6.74894 20.7304 6.865L22.5773 8.4825V5.25C22.5773 4.91848 22.7279 4.60054 22.996 4.36612C23.2641 4.1317 23.6277 4 24.0068 4C24.3859 4 24.7495 4.1317 25.0176 4.36612C25.2857 4.60054 25.4363 4.91848 25.4363 5.25V8.4825L27.286 6.865C27.5545 6.63061 27.9184 6.49907 28.2977 6.4993C28.677 6.49954 29.0407 6.63153 29.3088 6.86625C29.5768 7.10097 29.7272 7.41918 29.727 7.75088C29.7267 8.08259 29.5758 8.40061 29.3073 8.635L25.4363 12.0175V21.835L35.1568 16.9275L36.5749 12.3025C36.6734 11.9823 36.9135 11.7094 37.2421 11.5439C37.5708 11.3784 37.9612 11.3338 38.3274 11.42C38.6936 11.5062 39.0057 11.7161 39.195 12.0035C39.3843 12.2909 39.4352 12.6323 39.3366 12.9525L38.6619 15.1575L41.864 13.5425C42.1921 13.3794 42.5808 13.3363 42.945 13.4228C43.3093 13.5093 43.6197 13.7183 43.8085 14.0041C43.9972 14.29 44.049 14.6295 43.9525 14.9486C43.856 15.2678 43.6191 15.5406 43.2935 15.7075L40.0914 17.3225L42.6159 17.915C42.9821 18.0012 43.2942 18.2111 43.4835 18.4985C43.6727 18.7859 43.7237 19.1273 43.6251 19.4475C43.5265 19.7677 43.2865 20.0406 42.9578 20.2061C42.6292 20.3716 42.2388 20.4162 41.8726 20.33L36.5892 19.0925L26.8658 24L36.5863 28.9075L41.8726 27.67C42.2388 27.5841 42.629 27.629 42.9574 27.7947C43.2858 27.9605 43.5255 28.2335 43.6237 28.5537C43.7219 28.874 43.6706 29.2152 43.481 29.5024C43.2915 29.7896 42.9793 29.9991 42.613 30.085L40.0885 30.6775L43.2906 32.2925C43.6163 32.4594 43.8532 32.7322 43.9497 33.0514C44.0461 33.3705 43.9944 33.71 43.8056 33.9959C43.6169 34.2817 43.3065 34.4907 42.9422 34.5772C42.5779 34.6637 42.1893 34.6206 41.8611 34.4575L38.6591 32.8425L39.3338 35.05C39.3858 35.2096 39.401 35.3766 39.3784 35.5413C39.3559 35.706 39.296 35.8652 39.2024 36.0095C39.1088 36.1538 38.9832 36.2804 38.8331 36.3818C38.683 36.4833 38.5112 36.5576 38.3279 36.6004C38.1446 36.6432 37.9534 36.6537 37.7654 36.6312C37.5774 36.6087 37.3964 36.5537 37.233 36.4695C37.0695 36.3852 36.9269 36.2733 36.8134 36.1403C36.7 36.0074 36.6179 35.856 36.572 35.695L35.1568 31.0725L25.4363 26.165V35.9825L29.3045 39.365C29.5729 39.5994 29.7238 39.9174 29.7241 40.2491C29.7244 40.5808 29.5739 40.899 29.3059 41.1338C29.0379 41.3685 28.6742 41.5005 28.2948 41.5007C27.9155 41.5009 27.5516 41.3694 27.2832 41.135L25.4334 39.5175V42.75C25.4334 43.0815 25.2828 43.3995 25.0147 43.6339C24.7466 43.8683 24.383 44 24.0039 44H24.0068Z" fill="#33813A"/>
</svg>
