<svg width="360" height="649" viewBox="0 0 360 649" fill="none" xmlns="http://www.w3.org/2000/svg">
<g clip-path="url(#clip0_80_825)">
<path d="M360 -2H0V224H360V-2Z" fill="url(#paint0_linear_80_825)"/>
<path d="M103.133 204.852C102.267 204.78 97.8 204.708 91 204.636C74.0667 204.456 42.8 204.276 17.1667 204.204C11.0333 204.204 5.20001 204.168 -0.0333252 204.168V197C1.10001 197.072 2.23334 197.108 3.36668 197.18C5.90001 197.324 8.46667 197.432 11.0667 197.468C16.8667 197.504 22.7 197 28.1667 194.767C28.3333 194.695 28.6333 194.515 29.0667 194.263C31.9667 192.534 40.3667 187.095 47.4333 185.546C55.5333 183.781 60.5667 187.743 60.5667 187.743C60.5667 187.743 72.8667 196.748 73.8 197.288C77.5 199.521 82.8333 199.269 86.9333 199.485C92.4 199.774 97.4 199.341 102.633 201.106C107.5 202.727 107.8 205.284 103.133 204.852Z" fill="url(#paint1_linear_80_825)"/>
<path d="M103.8 149.687C103.933 153.073 94.8333 151.956 93.5667 151.884C89.5667 151.74 42.0333 152.604 42.0333 152.604C42.0333 152.604 31.8 152.424 21.6667 152.244C13.4667 152.1 5.3 151.956 2.63333 151.92C1.73333 151.92 0.866667 151.92 0 151.92V129.804C2.13333 129.444 4.26667 129.264 6.46667 129.084C8.6 128.904 10.8 129.048 12.9333 129.192C17.8667 129.516 22.0333 130.093 26 133.478C27.1 134.415 28.1 135.387 29.0667 136.324C32.2 139.385 35.1667 142.231 40.0333 142.375C45.1 142.519 49.7 138.593 54.8 139.53C56.2 139.782 60.9333 143.492 65 144.428C69.0667 145.365 74.7333 142.591 81.7 143.348C86.5333 143.852 89.2667 145.689 91 146.697C91.7667 147.166 92.3333 147.454 92.8 147.418C95.2333 147.31 97.5667 147.094 100.033 147.166C101.467 147.202 103.7 147.85 103.8 149.687Z" fill="url(#paint2_linear_80_825)"/>
<path d="M362.694 -1.54934V61.52C361.727 61.6641 360.761 61.8082 359.761 61.9522L362.694 62.0243V62.3124C359.227 62.3484 355.794 62.3845 352.327 62.3124C348.061 62.2404 340.027 62.4565 329.561 62.7807C291.227 63.9333 220.727 66.5987 188.294 63.0688C147.027 58.5664 184.361 46.8242 187.194 44.3749C189.527 42.3219 191.927 40.1607 194.694 38.792C201.894 35.1901 211.694 35.2981 219.427 35.7664C227.827 36.2707 236.494 37.1711 244.661 34.3977C249.127 32.8849 253.027 30.0754 257.094 27.6621C268.594 20.8545 279.794 13.5787 292.094 8.46395C296.827 6.51892 301.827 5.36631 306.727 3.99759C315.294 1.58431 324.194 -0.288678 333.027 -1.29721C333.461 -1.33323 333.894 -1.40527 334.327 -1.44129C343.127 -2.30574 352.294 -1.98157 361.094 -1.69342C361.594 -1.62138 362.161 -1.58536 362.694 -1.54934Z" fill="url(#paint3_linear_80_825)"/>
<path d="M198.133 369.135C199.1 369.495 198.6 369.207 199.6 370.036L198.133 369.135Z" fill="url(#paint4_linear_80_825)"/>
<path d="M360.033 114.237V237.638C358.867 237.818 357.8 237.963 357.167 238.107C354.967 238.539 352.767 238.971 350.567 239.403C343.433 240.736 336.333 241.817 329.033 242.321C305.5 243.942 281.8 243.654 258.133 243.185C243.967 242.897 229.833 242.573 215.733 242.573C205.3 242.573 194.867 242.573 184.433 242.573C175.633 242.573 166.867 242.537 158.067 242.501H158.033C150.867 242.465 143.733 242.429 136.567 242.357C136.533 242.357 136.533 242.357 136.5 242.357C131.7 242.321 126.9 242.249 122.133 242.213C111.333 242.069 100.533 241.889 89.7 241.6C76.9667 241.312 64.2333 241.672 51.5333 241.024C49.3333 240.916 47.1333 240.772 44.9333 240.592C39.1 240.124 32.7667 240.484 27.0667 239.115C25.3333 238.683 23.6333 238.071 21.9333 237.386C18.6333 236.053 15.3333 234.397 11.9333 233.424C9.30001 232.668 6.16667 233.064 3.50001 232.271C2.56667 231.983 1.70001 231.587 0.933339 230.939C0.133339 230.254 0.266673 229.498 0.433339 228.742C0.600006 228.057 0.800006 227.373 0.433339 226.725C0.333339 226.58 0.233339 226.436 0.100006 226.328V111.788C4.10001 114.165 7.80001 117.155 11.2 120.504C13.3667 122.629 15.3667 124.899 17.3 127.24C18.8667 129.185 20.3667 131.202 21.8 133.219C24.1 136.497 26.2 139.847 28.1 143.196C32.7667 151.301 36.4 162.214 45.7333 166.249C48.5667 167.473 72.1667 157.712 87.2667 167.653C98.8 175.253 115.967 197.261 152.667 198.45C188.267 199.602 212.533 185.411 232.3 173.524C232.933 173.164 233.533 172.768 234.167 172.408C234.633 172.12 235.1 171.832 235.6 171.543C237.167 170.607 238.667 169.634 240.2 168.626C243.067 166.753 245.933 164.844 248.8 163.043C254.367 159.477 260.067 156.199 266.5 153.822C273.533 151.229 281.267 149.428 288.767 150.364C296.033 151.265 303.433 153.786 310.8 153.354C314.6 153.138 319.067 150.328 322.533 148.887C324.1 148.239 325.6 147.519 327.033 146.762C338.967 140.423 346.233 130.482 355.1 120.108C355.833 119.064 357.867 116.29 360.033 114.237Z" fill="url(#paint5_linear_80_825)"/>
<path d="M360.033 177.811V239.367H354.333C353.067 239.367 351.833 239.367 350.567 239.403C334.867 239.547 319.167 240.628 303.467 240.628C293.4 240.628 283.333 240.988 273.3 241.456C268.7 241.672 266.6 241.456 266.833 241.6L258.133 243.149L252.067 244.23C247.233 245.959 229 249.957 211.967 251.686C194.7 253.451 177.4 254.891 160.133 256.512C150.767 257.377 140.433 257.845 131.133 256.08C127.1 255.324 120.967 253.847 120.5 248.336C120.333 246.463 120.833 244.626 121.7 242.933C121.833 242.681 122 242.393 122.133 242.141C123.433 240.016 125.3 238.215 127.267 236.954C127.967 236.486 128.7 236.09 129.4 235.801C134 233.82 138.933 232.884 143.533 230.795C146.3 229.534 149.067 228.129 151.767 226.616C152.667 226.112 153.567 225.608 154.433 225.104C155 224.78 155.533 224.455 156.1 224.131C160.967 221.214 165.733 218.08 170.4 214.946C171.933 213.938 173.5 212.893 175.067 211.885C189.367 202.808 206.167 194.668 222.6 194.055C227.2 193.875 231.6 195.172 236.133 195.532C243.633 196.108 251.1 196.613 258.567 197.621C267.633 198.846 276.133 201.223 285.467 199.494C295.333 197.657 305.267 191.786 312.733 184.654C315.067 182.421 316.6 179.936 319.5 178.387C331.8 171.723 344.8 171.111 357.4 176.73C358.3 177.054 359.167 177.414 360.033 177.811Z" fill="url(#paint6_linear_80_825)"/>
<path d="M154.833 224.095C154.733 224.455 154.6 224.78 154.4 225.068C153.9 225.824 153.033 226.364 151.733 226.58C150.767 226.761 149.567 226.761 148.133 226.58C136.1 224.996 124.233 225.14 112.133 224.924C109.867 224.888 107.567 224.852 105.3 224.78C101.6 224.671 97.9333 224.563 94.2334 224.419C91.4667 224.311 88.7333 224.203 85.9667 224.059C79.2 223.771 72.4333 223.411 65.6667 223.123C61.2333 222.907 56.8 222.726 52.3667 222.582C40.6 222.15 28.8 222.294 17.0333 222.582C12.0333 222.69 7.00001 221.79 2.86668 221.178C2.60001 221.142 2.56668 221.79 2.33335 221.754C1.43335 221.682 0.666681 221.394 0.0666809 220.889V183.898C6.20001 178.927 19.2333 176.694 24.5 176.874C33.0333 177.198 41.2667 180.152 49.6 181.593C61.8667 183.718 74.8667 184.114 86.4667 189.625C92.6 192.542 98.7667 197.729 104.267 202.592C105.633 203.816 106.967 205.005 108.267 206.122C110.933 208.463 114.367 212.245 117.633 213.434C122.3 215.126 128.967 213.434 133.567 212.245C145.933 209.111 156 219.125 154.833 224.095Z" fill="url(#paint7_linear_80_825)"/>
<path d="M117 237.134C114.567 237.026 110.933 236.882 105.833 236.738C88.5 236.306 71.2667 235.009 53.9 236.486C53.1667 236.558 52.4 236.594 51.6667 236.666C42.0333 237.458 31.8 237.999 21.9 237.314C18.1667 237.062 14.5 236.63 10.9333 236.017C8.76666 235.621 5.79999 234.217 3.43332 232.235C2.19999 231.191 1.09999 230.002 0.366659 228.706C0.233325 228.489 0.133325 228.273 0.0333252 228.057V217.252L0.433325 212.605L1.76666 196.685C5.43332 195.1 10.5 196.324 14.4333 195.748C33.5333 192.939 59.8667 199.17 76.8 210.588C77.7 211.2 78.5667 211.813 79.4333 212.461C79.9333 212.857 80.4333 213.217 80.9333 213.614C85.3 216.999 89.5667 220.565 93.8333 224.095C93.9667 224.203 94.1 224.311 94.2667 224.455C95.4333 225.428 96.6 226.364 97.7667 227.337C101.367 230.254 104.6 234.289 109.1 235.585C111.8 236.342 114.7 236.846 117 237.134Z" fill="url(#paint8_linear_80_825)"/>
<path d="M360 246H0V641H360V246Z" fill="url(#paint9_linear_80_825)"/>
<path d="M117 237.134C123.7 237.494 121.567 237.71 117 237.134V237.134Z" fill="url(#paint10_linear_80_825)"/>
<path d="M74.2 216.711C76.8 216.711 88.5333 208.823 91.8667 207.274C102.867 202.268 114.333 199.17 126.333 198.774C144.9 198.161 176.467 212.425 176.467 212.425C176.467 212.425 211.2 233.784 236.8 238.179C240.367 238.791 189.3 241.961 185.9 242.357C173.033 243.834 159.767 242.105 146.867 242.105C121.433 242.105 96.2 245.166 70.7333 245.166C65.7 245.166 49.9333 248.084 51.3333 237.638C51.6 235.657 55.5333 232.884 56.8 231.515C60.6667 227.337 65.5 222.762 70.3333 219.953C73.1333 218.332 76.4667 218.26 79.0667 216.171L74.2 216.711Z" fill="url(#paint11_linear_80_825)"/>
<path d="M360.033 207.995V272.073C352.067 275.891 325.3 291.379 322 291.595C319.6 291.739 317.3 291.883 315.167 292.063C307.633 292.603 299.567 293.612 291.667 295.197C289.833 295.557 288.033 295.953 286.233 296.421C286.067 296.457 250.533 260.582 189.567 274.522C148.9 283.851 96.6333 313.35 94.8 313.386C88.1 313.494 81.4333 313.566 74.8 313.566H74.7C72.2667 313.566 71.3333 308.704 68.6333 308.884C68.6333 308.884 59.3333 300.708 55.3333 299.663C50.7667 298.474 30.5667 293.432 23.9333 292.099C19.0333 291.163 2.66666 298.294 1.99999 298.078C1.36666 297.862 0.699992 297.682 0.0333252 297.538V212.713C0.166659 212.677 0.299992 212.641 0.433325 212.605C21 207.31 41.1 204.105 62.3 207.058C67.2667 207.742 72.0667 208.967 76.8 210.588C78.7 211.236 80.6 211.957 82.4667 212.713C85.9333 214.154 89.3667 215.739 92.7333 217.468C96.6 219.449 100.367 221.718 104.167 224.059C104.533 224.311 104.933 224.527 105.3 224.779C112.467 229.246 119.6 233.892 127.233 236.918C132.1 238.863 137.2 240.196 142.633 240.412C162.967 241.276 182.067 231.515 201.5 225.824C203.367 225.284 205.2 224.779 207.067 224.311C207.4 224.239 207.767 224.131 208.1 224.059C223.167 220.421 238.733 218.476 253.967 215.955C278.367 211.921 302.867 207.851 327.567 207.022C337.867 206.698 349.1 206.554 360.033 207.995Z" fill="url(#paint12_linear_80_825)"/>
<path d="M0.0333333 299.951V299.087C0.7 298.727 1.33333 298.366 2 298.042C15.1667 291.451 30.2 289.974 44.3333 295.053C59.2 300.42 73.9667 313.35 90.4333 311.874C103.233 310.721 115.233 302.112 126.2 295.737C135.967 290.046 146.1 286.012 156.5 282.086C159.8 280.825 163.167 278.376 166.6 277.764C171.4 276.899 176.267 275.098 181.133 274.81C186.967 274.486 193.033 274.63 198.8 273.909C205.567 273.081 213.433 271.46 220.267 272.325C225.167 272.937 230.067 273.765 235 274.738C242.633 276.215 250.233 278.088 257.733 280.141C259.833 280.717 261.933 281.293 264 281.906C267.5 282.914 268.933 284.715 268.867 286.624C268.833 287.128 268.7 287.597 268.5 288.101C266.967 291.595 260.833 294.837 253.267 293.72C243.967 292.351 234.467 291.919 225.067 291.919C223.233 291.919 217.133 291.883 216.633 294.44C215.6 299.951 222.633 300.708 226.1 301.716C231.567 303.301 246.467 304.742 255.633 305.606C258.7 305.894 261.1 306.111 262.3 306.255C264.7 306.543 277.467 307.803 275.333 313.53C273.5 318.501 254.667 312.918 250.933 311.729C246.133 310.181 241.267 308.992 236.367 308.092C222.333 305.498 207.867 305.138 193.7 305.138C190 305.138 181.967 305.102 177.6 307.911C176.367 308.704 175.433 309.748 174.967 311.045C173.133 316.376 182.733 315.98 185.7 316.268C195.933 317.276 206.233 315.187 216.433 316.484C218.133 316.7 230.633 318.321 228.633 321.022C226.8 323.58 215.733 321.959 210.133 323.292C187.667 328.694 178.8 330.279 167.6 330.82C160.1 331.18 140.733 331.9 139.867 328.046C139.2 325.165 149.033 325.561 150.167 325.561C158.7 325.561 166.933 327.146 175.433 327.146C177.367 327.146 181.333 327.146 182.367 324.876C184.433 320.41 173.433 318.969 171.833 318.753C162.767 317.529 153.067 316.952 144.267 314.431C143.433 314.179 140.1 312.558 138.633 311.045C138.167 310.541 137.9 310.073 137.967 309.64C138.333 306.795 143 304.922 145.133 304.418C152.633 302.617 160.5 302.653 167.867 300.564C169.667 300.059 178.333 296.71 176.067 293.072C172.733 287.669 161.033 289.434 156.3 291.019C153.6 291.919 137.2 298.474 120.3 304.706C120.3 304.706 120.3 304.706 120.267 304.706C120.267 304.706 120.267 304.706 120.233 304.706C111.233 308.02 102.1 311.225 94.8 313.422C87.9333 315.511 82.6667 316.7 80.7333 316.268C78.4333 315.728 76.5333 314.755 74.8 313.602C72.0667 311.802 69.7333 309.496 66.6333 307.623C62.3 305.03 54.8333 303.949 48.1667 304.382H48.1333C44.3 304.634 40.7333 305.354 38.2 306.543C37.4 306.939 36.6667 307.371 36.1 307.875C33.1 310.433 51.6667 310.181 49.7667 313.566C48.9 315.115 42.7333 314.395 41.3333 314.251C39.0667 314.035 21.1667 307.371 17.5667 306.507C12.1333 305.246 4.86667 305.822 0 308.956V299.951H0.0333333Z" fill="url(#paint13_linear_80_825)"/>
<path d="M360.033 263.968V278.376C310.933 296.313 312.767 320.482 258.9 284.247C243.767 276.431 225.233 274.99 208.833 275.819C163.033 279.673 151.533 289.11 113.633 307.911C64.4333 330.676 65.6334 304.238 27.2667 297.682C18.5667 296.313 8.90001 296.89 0.0666809 299.951V286.12C75.7667 267.426 43.4667 325.849 132.9 282.446C151.767 275.314 171.867 271.82 191.6 268.11C274.833 257.701 276.267 312.846 340.733 270.344C346.9 266.706 352.7 264.256 360.033 263.968Z" fill="url(#paint14_linear_80_825)"/>
<path fill-rule="evenodd" clip-rule="evenodd" d="M187.069 260.492C186.412 260.557 186.708 260.607 186.175 260.403L187.069 260.492Z" fill="#454C36"/>
<path fill-rule="evenodd" clip-rule="evenodd" d="M139.152 279.818C139.071 279.77 139.866 280.216 140.048 280.318C140.351 280.486 140.905 280.975 141.298 280.818C141.365 280.791 141.515 280.365 141.59 280.276C142.147 279.607 142.332 279.576 143.132 279.443C143.194 279.432 143.745 279.306 143.798 279.359C144.096 279.656 143.868 281.109 143.798 281.526C143.765 281.728 143.757 281.992 143.757 282.193C143.757 282.291 143.715 282.583 143.715 282.484C143.715 281.362 145.588 282.208 146.048 281.901C146.124 281.851 145.69 281.14 145.673 281.109C145.512 280.813 145.48 280.342 145.34 280.109C145.251 279.96 144.872 280.089 144.882 280.109C144.904 280.153 146.32 280.026 146.465 280.026C146.978 280.026 147.916 280.497 148.424 280.193C148.649 280.057 148.735 279.631 148.924 279.443C148.99 279.376 149.424 279.123 149.424 279.026C149.424 278.99 147.746 279.183 147.632 279.193C147.494 279.204 147.138 279.308 147.215 279.193C147.339 279.007 150.749 277.883 150.757 277.859C150.821 277.667 149.832 277.245 149.674 277.192C149.531 277.145 149.449 276.942 149.299 276.942C148.513 276.942 147.302 278.032 146.257 277.901C144.938 277.736 143.632 277.537 142.257 277.609C142.011 277.622 141.547 277.792 141.298 277.693C141.057 277.596 141.086 277.426 140.756 277.401C140.326 277.368 139.845 277.485 139.423 277.401C139.199 277.356 137.483 277.126 137.34 277.317C137.327 277.334 137.482 278.681 137.59 278.734C137.914 278.896 140.054 278.276 140.59 278.276C140.743 278.276 141.048 278.123 141.048 278.276C141.048 278.568 139.561 280.057 139.152 279.818Z" fill="#543631"/>
<path fill-rule="evenodd" clip-rule="evenodd" d="M142.473 278.236C142.533 278.395 141.883 277.897 141.77 277.783C141.298 277.312 140.773 277.116 140.207 276.783C138.594 275.834 138.337 273.063 139.238 271.562C139.829 270.576 141.15 269.969 141.457 268.842C141.556 268.479 141.535 266.084 141.645 266.029C141.67 266.016 141.707 266.37 141.707 266.373C141.744 266.633 141.848 266.877 141.957 267.123C142.18 267.623 143.176 270.765 143.708 270.499C144.273 270.217 144.078 269.251 144.114 268.749C144.216 267.321 144.416 265.899 145.146 264.622C145.242 264.454 145.446 263.615 145.615 263.559C145.772 263.507 145.68 263.893 145.677 263.903C145.468 264.672 145.244 265.483 145.177 266.279C145.103 267.168 144.919 268.481 145.302 269.311C145.646 270.057 145.896 270.402 145.896 271.281C145.896 271.754 145.171 272.721 145.74 273.063C147.135 273.9 146.678 270.044 146.678 269.78C146.678 269.449 146.728 269.109 146.771 268.78C146.792 268.623 146.793 267.395 146.897 267.498C147 267.602 146.931 269.232 147.022 269.593C147.508 271.537 147.883 273.177 147.553 275.157C147.406 276.038 148.106 276.597 147.397 277.408C146.579 278.343 145.378 278.865 144.083 278.721C143.889 278.699 142.421 278.096 142.473 278.236Z" fill="#E94420"/>
<path fill-rule="evenodd" clip-rule="evenodd" d="M129.857 269.627C129.857 262.108 136.206 256.013 144.038 256.013C151.87 256.013 158.218 262.108 158.218 269.627C158.218 277.146 151.87 283.241 144.038 283.241C136.206 283.241 129.857 277.146 129.857 269.627Z" fill="url(#paint15_radial_80_825)"/>
<path fill-rule="evenodd" clip-rule="evenodd" d="M143.758 276.806C143.758 277.369 142.498 276.555 142.393 276.489C141.594 275.99 141.122 275.373 141.187 274.394C141.249 273.465 142.061 272.808 142.298 271.919C142.668 270.532 142.386 269.085 142.584 267.698C142.701 266.879 142.639 266.253 142.933 265.445C143.045 265.135 143.227 264.829 143.409 264.556C143.446 264.501 143.472 264.366 143.472 264.366C143.472 264.366 143.349 264.526 143.314 264.62C143.12 265.136 143.086 265.688 143.123 266.238C143.203 267.44 144.012 268.668 144.012 269.729C144.012 270.173 143.763 272.544 144.202 272.617C145.428 272.822 145.393 269.053 145.567 268.301C145.668 267.864 145.8 267.429 146.011 267.032C146.082 266.898 146.187 266.781 146.265 266.651C146.292 266.606 146.36 266.471 146.36 266.524C146.36 266.75 146.08 267.129 146.011 267.349C145.854 267.852 145.789 268.411 145.789 268.936C145.789 269.934 146.325 270.822 146.519 271.792C146.856 273.478 146.155 273.936 145.662 275.251C145.5 275.685 145.769 276.218 145.598 276.616C145.16 277.64 143.309 276.961 142.806 276.457" fill="#FDBD19" fill-opacity="0.768018"/>
<path fill-rule="evenodd" clip-rule="evenodd" d="M132.987 279.029L132.922 278.98L132.906 278.915L132.938 278.898H133.004" fill="#FDBD19" fill-opacity="0.768018"/>
<path fill-rule="evenodd" clip-rule="evenodd" d="M143.37 278.197C143.439 278.216 142.773 278.245 142.621 278.245C142.154 278.245 141.612 278.167 141.171 278.02C139.665 277.518 138.852 276.633 138.191 275.217C137.523 273.786 138.451 272.017 138.916 270.674C139.07 270.228 139.113 269.795 139.19 269.337C139.217 269.17 139.246 269.004 139.27 268.837C139.275 268.804 139.253 268.622 139.238 268.66C139.009 269.233 139.222 270.312 139.222 270.932C139.222 271.452 139.066 271.991 139.109 272.51C139.325 275.096 140.513 275.641 142.54 276.747C142.88 276.932 143.224 277.342 143.394 277.682C143.501 277.895 143.37 278.197 143.37 278.197Z" fill="#FDBD19" fill-opacity="0.768018"/>
<path fill-rule="evenodd" clip-rule="evenodd" d="M144.301 264.665C144.154 264.904 144.29 264.307 144.312 264.196C144.384 263.838 144.442 263.232 144.708 262.967C144.767 262.907 144.895 262.8 144.895 262.8C144.895 262.8 144.57 263.246 144.541 263.509C144.473 264.123 144.631 264.132 144.301 264.665Z" fill="#FDBD19" fill-opacity="0.768018"/>
<path fill-rule="evenodd" clip-rule="evenodd" d="M140.279 267.25C140.255 267.263 140.259 266.995 140.247 266.948C140.098 266.349 140.099 265.934 140.352 265.343C140.396 265.24 140.468 264.951 140.518 265.051C140.58 265.174 140.307 265.661 140.289 265.822C140.219 266.453 140.938 266.889 140.279 267.25Z" fill="#FDBD19" fill-opacity="0.768018"/>
<path fill-rule="evenodd" clip-rule="evenodd" d="M148.157 272.148C148.039 271.995 148.26 271.823 148.313 271.637C148.361 271.471 148.397 271.315 148.397 271.137C148.397 271.028 148.349 270.954 148.313 271.095C148.311 271.107 148.672 272.812 148.157 272.148Z" fill="#FDBD19" fill-opacity="0.768018"/>
<path fill-rule="evenodd" clip-rule="evenodd" d="M148.063 276.618C147.986 276.536 148.31 276.086 148.355 275.951C148.363 275.928 148.378 275.533 148.355 275.555C148.246 275.665 148.693 277.294 148.063 276.618Z" fill="#FDBD19" fill-opacity="0.768018"/>
<path fill-rule="evenodd" clip-rule="evenodd" d="M143.722 282.34C143.731 282.219 143.734 282.094 143.779 282.019C143.858 281.887 144.131 281.863 144.262 281.798C144.767 281.546 145.06 281.983 145.505 281.894C145.667 281.862 145.747 281.649 145.947 281.729C146.031 281.762 146.094 281.813 146.113 281.908C146.278 282.734 144.908 282.406 144.566 282.474C144.332 282.521 144.171 282.777 143.917 282.82C143.636 282.866 143.716 282.427 143.722 282.34Z" fill="#80605B"/>
<path fill-rule="evenodd" clip-rule="evenodd" d="M137.284 277.388C137.271 277.43 137.287 277.418 137.268 277.552C137.24 277.745 137.296 278.79 137.637 278.733C137.915 278.687 137.724 277.577 137.59 277.4C137.41 277.159 137.3 277.333 137.284 277.388Z" fill="#80605B"/>
<path fill-rule="evenodd" clip-rule="evenodd" d="M141.185 280.722C140.908 280.246 142.942 278.515 143.267 278.623C143.352 278.651 142.903 278.963 142.877 278.98C142.608 279.148 142.336 279.317 142.095 279.524C141.802 279.775 141.341 280.99 141.185 280.722Z" fill="#80605B"/>
<path fill-rule="evenodd" clip-rule="evenodd" d="M186.54 251.861L145.693 260.732L176.582 274.473L202.757 258.504L186.54 251.861Z" fill="url(#paint16_linear_80_825)"/>
<path fill-rule="evenodd" clip-rule="evenodd" d="M156.072 245.539L148.38 260.828L168.861 269.06L156.072 245.539Z" fill="url(#paint17_linear_80_825)"/>
<path fill-rule="evenodd" clip-rule="evenodd" d="M155.956 246.148H155.533L155.543 263.821L155.887 263.942L155.956 246.148Z" fill="black"/>
<path fill-rule="evenodd" clip-rule="evenodd" d="M145.638 260.802L148.386 260.824L155.951 246.226L155.443 245.265C155.443 245.265 147.51 259.525 147.181 260.034C146.852 260.543 145.638 260.802 145.638 260.802Z" fill="#594947"/>
<path fill-rule="evenodd" clip-rule="evenodd" d="M184.117 237.951L155.442 245.266C155.442 245.266 157.422 252.805 160.242 258.241C162.976 263.509 169 269.86 169 269.86L197.451 256.453C197.451 256.453 192.375 252.331 189.434 247.703C186.493 243.075 184.117 237.951 184.117 237.951Z" fill="url(#paint18_linear_80_825)"/>
<path fill-rule="evenodd" clip-rule="evenodd" d="M170.278 268.742C170.278 268.68 170.015 268.631 169.691 268.631C169.366 268.631 169.103 268.68 169.103 268.742C169.103 268.803 169.366 268.853 169.691 268.853C170.015 268.853 170.278 268.803 170.278 268.742Z" fill="#2B2322"/>
<path fill-rule="evenodd" clip-rule="evenodd" d="M170.52 267.965L168.811 267.96C168.811 267.96 169.078 268.18 169.153 268.368C169.229 268.557 169.123 268.73 169.123 268.73C169.123 268.73 169.367 268.755 169.639 268.753C169.912 268.751 170.214 268.722 170.214 268.722C170.214 268.722 170.117 268.549 170.198 268.355C170.28 268.163 170.52 267.965 170.52 267.965Z" fill="black"/>
<path fill-rule="evenodd" clip-rule="evenodd" d="M170.53 267.96C170.53 267.911 170.145 267.87 169.67 267.87C169.195 267.87 168.81 267.909 168.81 267.959C168.81 268.008 169.195 268.048 169.67 268.049C170.145 268.049 170.53 268.009 170.53 267.96Z" fill="#303030"/>
<path fill-rule="evenodd" clip-rule="evenodd" d="M169.191 269.073L148.383 260.719L145.693 260.799L169.112 269.916L169.191 269.073Z" fill="#594947" fill-opacity="0.320957"/>
<path fill-rule="evenodd" clip-rule="evenodd" d="M196.794 256.352C196.794 256.316 196.641 256.287 196.452 256.287C196.263 256.287 196.11 256.316 196.11 256.352C196.11 256.387 196.263 256.416 196.452 256.416C196.641 256.416 196.794 256.387 196.794 256.352Z" fill="#2B2322"/>
<path fill-rule="evenodd" clip-rule="evenodd" d="M196.934 255.9L195.941 255.897C195.941 255.897 196.096 256.025 196.14 256.134C196.184 256.244 196.122 256.345 196.122 256.345C196.122 256.345 196.264 256.359 196.422 256.358C196.581 256.357 196.756 256.34 196.756 256.34C196.756 256.34 196.7 256.239 196.747 256.127C196.795 256.015 196.934 255.9 196.934 255.9Z" fill="black"/>
<path fill-rule="evenodd" clip-rule="evenodd" d="M196.94 255.897C196.94 255.868 196.716 255.845 196.44 255.845C196.164 255.844 195.94 255.867 195.94 255.896C195.94 255.925 196.164 255.948 196.44 255.948C196.716 255.949 196.94 255.926 196.94 255.897Z" fill="#303030"/>
<path fill-rule="evenodd" clip-rule="evenodd" d="M93.4638 257.754L134.933 266.626L105.356 281.322L77 264.397L93.4638 257.754Z" fill="url(#paint19_linear_80_825)"/>
<path fill-rule="evenodd" clip-rule="evenodd" d="M125.12 244.589L132.929 259.877L133.051 266.607L112.782 276.336L111.61 268.315L125.12 244.589Z" fill="url(#paint20_linear_80_825)"/>
<path fill-rule="evenodd" clip-rule="evenodd" d="M125.239 245.197H125.668L129.822 268.227L125.598 270.221L125.239 245.197Z" fill="black"/>
<path fill-rule="evenodd" clip-rule="evenodd" d="M125.799 245.285L125.128 245.054L128.373 260.191L129.822 268.227C129.822 268.227 130.308 266.769 130.975 266.064C131.643 265.36 132.492 265.41 132.492 265.41C132.492 265.41 130.913 263.154 129.151 258.363C127.388 253.572 125.799 245.285 125.799 245.285Z" fill="url(#paint21_linear_80_825)"/>
<path fill-rule="evenodd" clip-rule="evenodd" d="M135.713 259.851L132.924 259.874L125.244 245.276L125.759 244.315C125.759 244.315 133.813 258.574 134.147 259.083C134.481 259.592 135.713 259.851 135.713 259.851Z" fill="#594947"/>
<path fill-rule="evenodd" clip-rule="evenodd" d="M84.3007 255.273L112.913 266.081L112.787 276.334L112.4 276.15L84.925 263.042L84.3007 255.273Z" fill="url(#paint22_linear_80_825)"/>
<path fill-rule="evenodd" clip-rule="evenodd" d="M96.6485 237L125.76 244.315C125.76 244.315 123.75 251.855 120.887 257.29C118.111 262.559 111.996 268.909 111.996 268.909L83.1122 255.502C83.1122 255.502 88.2646 251.381 91.2504 246.753C94.2362 242.125 96.6485 237 96.6485 237Z" fill="#675552"/>
<path fill-rule="evenodd" clip-rule="evenodd" d="M105.555 279.712C105.555 279.651 105.822 279.601 106.152 279.601C106.481 279.601 106.748 279.651 106.748 279.712C106.748 279.773 106.481 279.823 106.152 279.823C105.822 279.823 105.555 279.773 105.555 279.712Z" fill="#2B2322"/>
<path fill-rule="evenodd" clip-rule="evenodd" d="M105.31 278.935L107.044 278.93C107.044 278.93 106.774 279.15 106.697 279.338C106.62 279.527 106.728 279.701 106.728 279.701C106.728 279.701 106.48 279.725 106.203 279.723C105.927 279.721 105.621 279.692 105.621 279.692C105.621 279.692 105.719 279.519 105.636 279.326C105.554 279.133 105.31 278.935 105.31 278.935Z" fill="black"/>
<path fill-rule="evenodd" clip-rule="evenodd" d="M105.299 278.93C105.299 278.881 105.69 278.841 106.172 278.84C106.654 278.84 107.045 278.88 107.045 278.929C107.045 278.978 106.655 279.018 106.173 279.019C105.69 279.019 105.3 278.98 105.299 278.93Z" fill="#303030"/>
<path fill-rule="evenodd" clip-rule="evenodd" d="M79.9472 265.831C79.9472 265.795 80.1025 265.766 80.2941 265.766C80.4856 265.766 80.6409 265.795 80.6409 265.831C80.6409 265.867 80.4856 265.896 80.2941 265.896C80.1025 265.896 79.9472 265.867 79.9472 265.831Z" fill="#2B2322"/>
<path fill-rule="evenodd" clip-rule="evenodd" d="M79.805 265.379L80.8128 265.376C80.8128 265.376 80.6557 265.504 80.6111 265.614C80.5664 265.723 80.6291 265.824 80.6291 265.824C80.6291 265.824 80.4852 265.839 80.3242 265.837C80.1633 265.836 79.9855 265.819 79.9855 265.819C79.9855 265.819 80.0424 265.719 79.9945 265.606C79.9466 265.494 79.805 265.379 79.805 265.379Z" fill="black"/>
<path fill-rule="evenodd" clip-rule="evenodd" d="M79.7988 265.376C79.7988 265.348 80.0259 265.324 80.3061 265.324C80.5864 265.324 80.8135 265.347 80.8136 265.376C80.8136 265.404 80.5864 265.428 80.3062 265.428C80.026 265.428 79.7988 265.405 79.7988 265.376Z" fill="#303030"/>
<path fill-rule="evenodd" clip-rule="evenodd" d="M135.507 265.928C135.507 265.866 135.775 265.817 136.104 265.817C136.434 265.817 136.701 265.866 136.701 265.928C136.701 265.989 136.434 266.039 136.104 266.039C135.775 266.039 135.507 265.989 135.507 265.928Z" fill="#2B2322"/>
<path fill-rule="evenodd" clip-rule="evenodd" d="M135.263 265.151L136.997 265.146C136.997 265.146 136.727 265.366 136.65 265.554C136.573 265.743 136.681 265.916 136.681 265.916C136.681 265.916 136.433 265.941 136.156 265.939C135.879 265.937 135.573 265.907 135.573 265.907C135.573 265.907 135.671 265.735 135.589 265.542C135.506 265.349 135.263 265.151 135.263 265.151Z" fill="black"/>
<path fill-rule="evenodd" clip-rule="evenodd" d="M135.252 265.146C135.252 265.097 135.643 265.057 136.125 265.056C136.607 265.056 136.998 265.095 136.998 265.145C136.998 265.194 136.607 265.234 136.125 265.235C135.643 265.235 135.252 265.195 135.252 265.146Z" fill="#303030"/>
<path fill-rule="evenodd" clip-rule="evenodd" d="M111.089 267.845C111.089 267.606 111.364 267.413 111.702 267.413C112.04 267.413 112.315 267.606 112.315 267.845C112.315 268.084 112.04 268.278 111.702 268.278C111.364 268.278 111.089 268.084 111.089 267.845Z" fill="#303030"/>
<path fill-rule="evenodd" clip-rule="evenodd" d="M83.8848 255.522C83.8848 255.391 84.058 255.285 84.2717 255.285C84.4853 255.285 84.6585 255.391 84.6585 255.522C84.6585 255.652 84.4853 255.757 84.2717 255.757C84.058 255.757 83.8848 255.652 83.8848 255.522Z" fill="#303030"/>
<path fill-rule="evenodd" clip-rule="evenodd" d="M111.44 267.962C111.511 267.869 111.221 267.934 111.166 267.962C110.945 268.072 110.398 268.618 110.74 268.875C110.895 268.992 111.465 268.789 111.308 268.631C111.274 268.597 111.266 268.724 111.227 268.753C111.16 268.804 111.017 268.853 110.943 268.794C110.692 268.594 110.916 268.158 111.186 268.104C111.245 268.092 111.369 268.138 111.409 268.124C111.451 268.11 111.41 268 111.44 267.962Z" fill="black"/>
<path d="M110.798 268.738L106.401 279.47" stroke="black" stroke-width="0.000995259" stroke-miterlimit="10" stroke-linecap="round" stroke-linejoin="round"/>
<path fill-rule="evenodd" clip-rule="evenodd" d="M84.2548 255.42C84.31 255.341 84.086 255.396 84.0432 255.42C83.8726 255.514 83.4498 255.979 83.7141 256.198C83.834 256.297 84.2744 256.125 84.153 255.991C84.1263 255.961 84.1204 256.069 84.0903 256.094C84.0384 256.137 83.9281 256.179 83.8708 256.129C83.6776 255.958 83.8504 255.587 84.0589 255.541C84.1042 255.531 84.1998 255.57 84.2314 255.558C84.2635 255.546 84.232 255.452 84.2548 255.42Z" fill="black"/>
<path d="M83.7588 256.081L80.4489 265.595" stroke="black" stroke-width="0.000995259" stroke-miterlimit="10" stroke-linecap="round" stroke-linejoin="round"/>
<path d="M134.541 259.92L136.076 265.509" stroke="black" stroke-width="0.000995259" stroke-miterlimit="10" stroke-linecap="round" stroke-linejoin="round"/>
<path fill-rule="evenodd" clip-rule="evenodd" d="M100.106 243.688L112.737 247.164C112.737 247.164 111.865 250.747 110.623 253.33C109.418 255.833 106.765 258.851 106.765 258.851L93.9479 253.809C93.9479 253.809 95.9643 251.784 97.2599 249.585C98.5554 247.386 100.106 243.688 100.106 243.688Z" fill="#544846" stroke="black" stroke-width="0.000995259" stroke-miterlimit="10" stroke-linecap="round" stroke-linejoin="round"/>
<path fill-rule="evenodd" clip-rule="evenodd" d="M110.623 253.33C110.623 253.33 109.749 254.921 108.784 256.302C107.82 257.682 106.765 258.851 106.765 258.851L93.9479 253.809C93.9479 253.809 94.76 253.207 96.2735 251.145C97.7839 249.088 110.623 253.33 110.623 253.33Z" fill="url(#paint23_linear_80_825)"/>
<path fill-rule="evenodd" clip-rule="evenodd" d="M94.9857 250.758C94.9857 250.758 96.3264 249.234 97.2513 248.938C98.1763 248.642 110.657 253.374 110.657 253.374C110.657 253.374 108.442 252.563 108.812 254.487C106.336 254.127 94.9857 250.758 94.9857 250.758Z" fill="url(#paint24_linear_80_825)"/>
<path fill-rule="evenodd" clip-rule="evenodd" d="M118.665 251.479C118.621 251.505 118.577 251.532 118.533 251.559L118.665 251.479Z" fill="#544846"/>
<path fill-rule="evenodd" clip-rule="evenodd" d="M109.215 252.653C109.233 252.672 109.251 252.69 109.27 252.708L109.215 252.653Z" fill="#544846"/>
</g>
<defs>
<linearGradient id="paint0_linear_80_825" x1="180" y1="19.5247" x2="180" y2="265" gradientUnits="userSpaceOnUse">
<stop stop-color="#1AB7EA"/>
<stop offset="1" stop-color="#FFF9D4"/>
</linearGradient>
<linearGradient id="paint1_linear_80_825" x1="70.4587" y1="244.65" x2="42.7269" y2="188.51" gradientUnits="userSpaceOnUse">
<stop stop-color="#FFF9D4"/>
<stop offset="1" stop-color="#1AB7EA"/>
</linearGradient>
<linearGradient id="paint2_linear_80_825" x1="55.9763" y1="167.612" x2="44.0979" y2="125.475" gradientUnits="userSpaceOnUse">
<stop stop-color="#FFF9D4"/>
<stop offset="1" stop-color="#1AB7EA"/>
</linearGradient>
<linearGradient id="paint3_linear_80_825" x1="218.103" y1="110.376" x2="351.791" y2="-13.3438" gradientUnits="userSpaceOnUse">
<stop offset="0.1457" stop-color="#1DA1DC" stop-opacity="0.3"/>
<stop offset="0.7671" stop-color="#D5ECFB" stop-opacity="0.69"/>
</linearGradient>
<linearGradient id="paint4_linear_80_825" x1="198.134" y1="369.593" x2="199.607" y2="369.593" gradientUnits="userSpaceOnUse">
<stop stop-color="#75F2F4" stop-opacity="0"/>
<stop offset="0.9566" stop-color="#4373DC"/>
</linearGradient>
<linearGradient id="paint5_linear_80_825" x1="179.072" y1="106.95" x2="181.009" y2="216.207" gradientUnits="userSpaceOnUse">
<stop stop-color="#91E069"/>
<stop offset="0.8512" stop-color="#35794B"/>
</linearGradient>
<linearGradient id="paint6_linear_80_825" x1="239.014" y1="161.304" x2="241.773" y2="260.61" gradientUnits="userSpaceOnUse">
<stop stop-color="#84CE5F"/>
<stop offset="0.7851" stop-color="#247D44"/>
</linearGradient>
<linearGradient id="paint7_linear_80_825" x1="0.0333476" y1="201.803" x2="204.956" y2="201.803" gradientUnits="userSpaceOnUse">
<stop stop-color="#84CE5F"/>
<stop offset="0.7851" stop-color="#216D3C"/>
</linearGradient>
<linearGradient id="paint8_linear_80_825" x1="0.0333252" y1="216.354" x2="226.927" y2="216.354" gradientUnits="userSpaceOnUse">
<stop stop-color="#84CE5F"/>
<stop offset="0.7851" stop-color="#216D3C"/>
</linearGradient>
<linearGradient id="paint9_linear_80_825" x1="180" y1="640.982" x2="180" y2="246.007" gradientUnits="userSpaceOnUse">
<stop stop-color="#005CCA" stop-opacity="0"/>
<stop offset="0.7671" stop-color="#3778FF"/>
</linearGradient>
<linearGradient id="paint10_linear_80_825" x1="116.993" y1="237.307" x2="125.262" y2="237.307" gradientUnits="userSpaceOnUse">
<stop stop-color="#84CE5F"/>
<stop offset="0.7851" stop-color="#216D3C"/>
</linearGradient>
<linearGradient id="paint11_linear_80_825" x1="51.1972" y1="222.189" x2="200.486" y2="222.189" gradientUnits="userSpaceOnUse">
<stop stop-color="#84CE5F"/>
<stop offset="0.7851" stop-color="#216D3C"/>
</linearGradient>
<linearGradient id="paint12_linear_80_825" x1="179.482" y1="216.029" x2="181.344" y2="322.315" gradientUnits="userSpaceOnUse">
<stop stop-color="#84CE5F"/>
<stop offset="0.7851" stop-color="#0C5C28"/>
</linearGradient>
<linearGradient id="paint13_linear_80_825" x1="42.8192" y1="286.473" x2="294.641" y2="309.539" gradientUnits="userSpaceOnUse">
<stop stop-color="#75F2F4" stop-opacity="0.1618"/>
<stop offset="0.9566" stop-color="#52BDFF" stop-opacity="0.2495"/>
</linearGradient>
<linearGradient id="paint14_linear_80_825" x1="0.0333476" y1="290.48" x2="360.033" y2="290.48" gradientUnits="userSpaceOnUse">
<stop stop-color="#CEBB5F"/>
<stop offset="0.9566" stop-color="#F2EFA4"/>
</linearGradient>
<radialGradient id="paint15_radial_80_825" cx="0" cy="0" r="1" gradientUnits="userSpaceOnUse" gradientTransform="translate(144.038 269.627) scale(14.1806 12.7337)">
<stop stop-color="#FDDF19" stop-opacity="0.445946"/>
<stop offset="1" stop-color="white" stop-opacity="0.01"/>
</radialGradient>
<linearGradient id="paint16_linear_80_825" x1="177" y1="271.154" x2="169.361" y2="253.453" gradientUnits="userSpaceOnUse">
<stop stop-color="#594947" stop-opacity="0"/>
<stop offset="1" stop-color="#2B2322"/>
</linearGradient>
<linearGradient id="paint17_linear_80_825" x1="155.184" y1="266.762" x2="155.412" y2="247.306" gradientUnits="userSpaceOnUse">
<stop stop-color="#5F4D42"/>
<stop offset="1" stop-color="#191817"/>
</linearGradient>
<linearGradient id="paint18_linear_80_825" x1="180.259" y1="266.38" x2="170.518" y2="238.616" gradientUnits="userSpaceOnUse">
<stop stop-color="#675552"/>
<stop offset="0.442149" stop-color="#807464"/>
<stop offset="1" stop-color="#8F6348"/>
</linearGradient>
<linearGradient id="paint19_linear_80_825" x1="103.149" y1="277.047" x2="110.709" y2="259.264" gradientUnits="userSpaceOnUse">
<stop stop-color="#594947" stop-opacity="0"/>
<stop offset="1" stop-color="#2B2322"/>
</linearGradient>
<linearGradient id="paint20_linear_80_825" x1="125.815" y1="273.508" x2="125.195" y2="246.827" gradientUnits="userSpaceOnUse">
<stop stop-color="#685142"/>
<stop offset="1" stop-color="#191817"/>
</linearGradient>
<linearGradient id="paint21_linear_80_825" x1="132.008" y1="256.164" x2="123.979" y2="259.681" gradientUnits="userSpaceOnUse">
<stop stop-color="#7D694E"/>
<stop offset="1"/>
</linearGradient>
<linearGradient id="paint22_linear_80_825" x1="98.2839" y1="268.473" x2="100.884" y2="257.266" gradientUnits="userSpaceOnUse">
<stop stop-color="#544846"/>
<stop offset="1"/>
</linearGradient>
<linearGradient id="paint23_linear_80_825" x1="102.255" y1="256.24" x2="103.776" y2="251.373" gradientUnits="userSpaceOnUse">
<stop stop-color="#675552"/>
<stop offset="1"/>
</linearGradient>
<linearGradient id="paint24_linear_80_825" x1="101.928" y1="250.484" x2="100.785" y2="253.403" gradientUnits="userSpaceOnUse">
<stop stop-color="#756E6C"/>
<stop offset="1" stop-color="#A78A74"/>
</linearGradient>
<clipPath id="clip0_80_825">
<rect width="360" height="757" fill="white" transform="translate(0 -108)"/>
</clipPath>
</defs>
</svg>
