<svg width="360" height="305" viewBox="0 0 360 305" fill="none" xmlns="http://www.w3.org/2000/svg">
<g clip-path="url(#clip0_85_3403)">
<path d="M360 -29H0V190H360V-29Z" fill="url(#paint0_linear_85_3403)"/>
<path d="M101.157 58.6209C100.291 58.5129 95.8243 58.4049 89.0249 58.2969C72.0931 58.0269 40.8294 57.757 15.1984 57.649C9.06564 57.649 3.23285 57.595 -2 57.595V46.8498C-0.866772 46.9578 0.266457 47.0118 1.39969 47.1197C3.93278 47.3357 6.49921 47.4977 9.09897 47.5517C14.8984 47.6057 20.7312 46.8498 26.1974 43.502C26.364 43.394 26.664 43.124 27.0973 42.7461C29.997 40.1543 38.3963 32.0009 45.4623 29.679C53.5615 27.0332 58.5944 32.9728 58.5944 32.9728C58.5944 32.9728 70.8932 46.4718 71.8265 47.2817C75.5262 50.6295 80.859 50.2515 84.9586 50.5755C90.4248 51.0075 95.4243 50.3595 100.657 53.0053C105.523 55.4351 105.823 59.2688 101.157 58.6209Z" fill="url(#paint1_linear_85_3403)"/>
<path d="M101.824 62.7002C101.957 67.7758 92.8579 66.102 91.5913 65.994C87.5917 65.778 40.0628 67.0739 40.0628 67.0739C40.0628 67.0739 29.8304 66.8039 19.698 66.5339C11.4987 66.318 3.33283 66.102 0.666414 66.048C-0.233502 66.048 -1.10009 66.048 -1.96667 66.048V32.8944C0.166461 32.3545 2.2996 32.0845 4.49939 31.8145C6.63253 31.5445 8.83232 31.7605 10.9655 31.9765C15.8983 32.4624 20.0646 33.3264 24.0309 38.402C25.1308 39.8059 26.1307 41.2638 27.0973 42.6677C30.2303 47.2574 33.1967 51.523 38.0629 51.739C43.1291 51.955 47.7287 46.0694 52.8282 47.4733C54.2281 47.8513 58.961 53.4129 63.0273 54.8168C67.0936 56.2207 72.7597 52.063 79.7258 53.1969C84.5586 53.9529 87.2917 56.7067 89.0249 58.2185C89.7915 58.9205 90.3581 59.3525 90.8247 59.2985C93.2578 59.1365 95.591 58.8125 98.0574 58.9205C99.4906 58.9745 101.724 59.9464 101.824 62.7002Z" fill="url(#paint2_linear_85_3403)"/>
<path d="M362.438 -10.5952V46.0601C361.527 46.1895 360.617 46.319 359.675 46.4484L362.438 46.5131V46.7719C359.172 46.8043 355.938 46.8367 352.673 46.7719C348.655 46.7072 341.088 46.9014 331.23 47.1926C295.124 48.228 228.721 50.6223 198.173 47.4514C159.304 43.4069 194.468 32.8589 197.137 30.6587C199.334 28.8144 201.595 26.873 204.201 25.6435C210.982 22.4079 220.213 22.505 227.497 22.9256C235.409 23.3786 243.572 24.1875 251.264 21.6961C255.471 20.3371 259.144 17.8134 262.974 15.6455C273.806 9.53023 284.355 2.99433 295.94 -1.60022C300.399 -3.34744 305.108 -4.38283 309.723 -5.61236C317.792 -7.78021 326.175 -9.46272 334.495 -10.3687C334.903 -10.401 335.311 -10.4658 335.719 -10.4981C344.008 -11.2747 352.642 -10.9834 360.93 -10.7246C361.401 -10.6599 361.935 -10.6275 362.438 -10.5952Z" fill="url(#paint3_linear_85_3403)"/>
<path d="M198.148 170.664C199.115 171.204 198.615 170.772 199.615 172.014L198.148 170.664Z" fill="url(#paint4_linear_85_3403)"/>
<path d="M360 147.335H0V293.498H360V147.335Z" fill="url(#paint5_linear_85_3403)"/>
<path d="M116.989 88.2126C123.689 88.7525 121.555 89.0765 116.989 88.2126V88.2126Z" fill="url(#paint6_linear_85_3403)"/>
<path d="M360 115.504V163.771C352.033 166.647 325.267 178.314 321.967 178.477C319.567 178.585 317.267 178.694 315.133 178.829C307.6 179.236 299.533 179.996 291.633 181.19C289.8 181.461 288 181.76 286.2 182.112C286.033 182.14 250.5 155.116 189.533 165.616C148.867 172.643 96.6 194.864 94.7667 194.891C88.0667 194.973 81.4 195.027 74.7667 195.027H74.6667C72.2333 195.027 71.3 191.364 68.6 191.5C68.6 191.5 59.3 185.341 55.3 184.554C50.7333 183.659 30.5333 179.86 23.9 178.857C19 178.151 2.63333 183.523 1.96667 183.36C1.33333 183.198 0.666667 183.062 0 182.954V119.058C0.133333 119.031 0.266667 119.004 0.4 118.977C20.9667 114.989 41.0667 112.574 62.2667 114.799C67.2333 115.314 72.0333 116.237 76.7667 117.458C78.6667 117.946 80.5667 118.489 82.4333 119.058C85.9 120.144 89.3333 121.337 92.7 122.64C96.5667 124.132 100.333 125.841 104.133 127.605C104.5 127.795 104.9 127.958 105.267 128.147C112.433 131.512 119.567 135.012 127.2 137.291C132.067 138.756 137.167 139.76 142.6 139.923C162.933 140.574 182.033 133.221 201.467 128.934C203.333 128.527 205.167 128.147 207.033 127.795C207.367 127.74 207.733 127.659 208.067 127.605C223.133 124.864 238.7 123.399 253.933 121.5C278.333 118.461 302.833 115.396 327.533 114.772C337.833 114.527 349.067 114.419 360 115.504Z" fill="url(#paint7_linear_85_3403)"/>
<path d="M0.0333397 187.733V186.776C0.700133 186.377 1.33359 185.978 2.00038 185.619C15.1695 178.322 30.2057 176.687 44.3418 182.31C59.2112 188.251 73.9807 202.568 90.4505 200.933C103.253 199.657 115.255 190.126 126.224 183.067C135.992 176.767 146.128 172.3 156.53 167.953C159.83 166.558 163.198 163.846 166.632 163.168C171.433 162.211 176.3 160.217 181.168 159.898C187.002 159.539 193.07 159.699 198.838 158.901C205.606 157.984 213.474 156.189 220.309 157.146C225.209 157.824 230.11 158.741 235.045 159.818C242.679 161.453 250.281 163.527 257.782 165.8C259.883 166.438 261.983 167.076 264.05 167.754C267.551 168.871 268.984 170.864 268.918 172.978C268.884 173.536 268.751 174.055 268.551 174.613C267.017 178.481 260.883 182.07 253.315 180.834C244.013 179.319 234.511 178.84 225.109 178.84C223.276 178.84 217.175 178.8 216.674 181.632C215.641 187.733 222.676 188.57 226.143 189.687C231.611 191.442 246.513 193.037 255.682 193.994C258.749 194.313 261.15 194.552 262.35 194.712C264.75 195.031 277.519 196.426 275.386 202.767C273.552 208.27 254.715 202.089 250.981 200.773C246.18 199.058 241.312 197.742 236.412 196.746C222.376 193.874 207.906 193.476 193.737 193.476C190.036 193.476 182.001 193.436 177.634 196.546C176.4 197.423 175.467 198.58 175 200.016C173.166 205.918 182.768 205.479 185.735 205.798C195.971 206.915 206.272 204.602 216.474 206.037C218.175 206.276 230.677 208.071 228.677 211.062C226.843 213.893 215.774 212.099 210.173 213.574C187.702 219.556 178.834 221.311 167.632 221.909C160.13 222.308 140.76 223.105 139.893 218.838C139.226 215.648 149.062 216.087 150.195 216.087C158.73 216.087 166.965 217.841 175.467 217.841C177.4 217.841 181.368 217.841 182.401 215.329C184.468 210.384 173.466 208.789 171.866 208.549C162.798 207.194 153.096 206.556 144.294 203.764C143.461 203.485 140.127 201.69 138.66 200.016C138.193 199.457 137.926 198.939 137.993 198.46C138.36 195.31 143.027 193.236 145.161 192.678C152.662 190.684 160.53 190.724 167.899 188.411C169.699 187.853 178.367 184.144 176.1 180.116C172.766 174.135 161.064 176.089 156.33 177.843C153.629 178.84 137.226 186.098 120.323 192.997C120.323 192.997 120.323 192.997 120.29 192.997C120.29 192.997 120.29 192.997 120.256 192.997C111.254 196.666 102.119 200.215 94.818 202.648C87.95 204.96 82.6824 206.276 80.7487 205.798C78.4482 205.2 76.5479 204.123 74.8142 202.847C72.0804 200.853 69.7466 198.301 66.646 196.227C62.3118 193.356 54.8437 192.16 48.1758 192.638H48.1425C44.3084 192.917 40.7411 193.715 38.2073 195.031C37.4071 195.469 36.6736 195.948 36.1069 196.506C33.1063 199.338 51.6765 199.058 49.7761 202.807C48.9093 204.522 42.7415 203.724 41.3412 203.565C39.0741 203.325 21.1707 195.948 17.57 194.991C12.1356 193.595 4.86759 194.233 0 197.703V187.733H0.0333397Z" fill="url(#paint8_linear_85_3403)"/>
<path d="M360 154.348V167.443C310.895 183.745 312.729 205.711 258.857 172.779C243.723 165.675 225.188 164.366 208.786 165.118C162.982 168.621 151.481 177.198 113.577 194.286C64.3726 214.975 65.5727 190.947 27.2025 184.989C18.5017 183.745 8.83415 184.269 0 187.051V174.481C75.707 157.491 43.404 210.588 132.846 171.142C151.714 164.66 171.816 161.485 191.551 158.113C274.792 148.652 276.226 198.771 340.698 160.143C346.865 156.836 352.666 154.61 360 154.348Z" fill="url(#paint9_linear_85_3403)"/>
</g>
<defs>
<linearGradient id="paint0_linear_85_3403" x1="180" y1="28.5" x2="180" y2="195.5" gradientUnits="userSpaceOnUse">
<stop stop-color="#1AB7EA"/>
<stop offset="1" stop-color="#FFF9D4"/>
</linearGradient>
<linearGradient id="paint1_linear_85_3403" x1="68.4855" y1="118.281" x2="18.4129" y2="50.6689" gradientUnits="userSpaceOnUse">
<stop stop-color="#FFF9D4"/>
<stop offset="1" stop-color="#1AB7EA"/>
</linearGradient>
<linearGradient id="paint2_linear_85_3403" x1="54.0044" y1="89.571" x2="29.5537" y2="31.7182" gradientUnits="userSpaceOnUse">
<stop stop-color="#FFF9D4"/>
<stop offset="1" stop-color="#1AB7EA"/>
</linearGradient>
<linearGradient id="paint3_linear_85_3403" x1="226.249" y1="89.9477" x2="346.648" y2="-26.8795" gradientUnits="userSpaceOnUse">
<stop offset="0.1457" stop-color="#1DA1DC" stop-opacity="0.3"/>
<stop offset="0.7671" stop-color="#D5ECFB" stop-opacity="0.69"/>
</linearGradient>
<linearGradient id="paint4_linear_85_3403" x1="198.149" y1="171.35" x2="199.622" y2="171.35" gradientUnits="userSpaceOnUse">
<stop stop-color="#75F2F4" stop-opacity="0"/>
<stop offset="0.9566" stop-color="#4373DC"/>
</linearGradient>
<linearGradient id="paint5_linear_85_3403" x1="180" y1="293.491" x2="180" y2="147.337" gradientUnits="userSpaceOnUse">
<stop stop-color="#005CCA" stop-opacity="0"/>
<stop offset="0.7671" stop-color="#3778FF"/>
</linearGradient>
<linearGradient id="paint6_linear_85_3403" x1="116.983" y1="88.4723" x2="125.25" y2="88.4723" gradientUnits="userSpaceOnUse">
<stop stop-color="#84CE5F"/>
<stop offset="0.7851" stop-color="#216D3C"/>
</linearGradient>
<linearGradient id="paint7_linear_85_3403" x1="179.449" y1="121.556" x2="180.505" y2="201.628" gradientUnits="userSpaceOnUse">
<stop stop-color="#84CE5F"/>
<stop offset="0.7851" stop-color="#0C5C28"/>
</linearGradient>
<linearGradient id="paint8_linear_85_3403" x1="42.8274" y1="172.81" x2="295.082" y2="193.684" gradientUnits="userSpaceOnUse">
<stop stop-color="#75F2F4" stop-opacity="0.1618"/>
<stop offset="0.9566" stop-color="#52BDFF" stop-opacity="0.2495"/>
</linearGradient>
<linearGradient id="paint9_linear_85_3403" x1="-0.0333364" y1="178.443" x2="360" y2="178.443" gradientUnits="userSpaceOnUse">
<stop stop-color="#CEBB5F"/>
<stop offset="0.9566" stop-color="#F2EFA4"/>
</linearGradient>
<clipPath id="clip0_85_3403">
<rect width="360" height="305" fill="white"/>
</clipPath>
</defs>
</svg>
