<svg width="360" height="343" viewBox="0 0 360 343" fill="none" xmlns="http://www.w3.org/2000/svg">
<g clip-path="url(#clip0_633_1342)">
<path d="M360.033 0H0.0334473V226H360.033V0Z" fill="url(#paint0_linear_633_1342)"/>
<path d="M103.167 206.852C102.3 206.78 97.8333 206.708 91.0333 206.636C74.1 206.456 42.8333 206.276 17.2 206.204C11.0667 206.204 5.23333 206.168 0 206.168V199C1.13333 199.072 2.26667 199.108 3.4 199.18C5.93333 199.324 8.5 199.432 11.1 199.468C16.9 199.504 22.7333 199 28.2 196.767C28.3667 196.695 28.6667 196.515 29.1 196.263C32 194.534 40.4 189.095 47.4667 187.546C55.5667 185.781 60.6 189.743 60.6 189.743C60.6 189.743 72.9 198.748 73.8333 199.288C77.5333 201.521 82.8667 201.269 86.9667 201.485C92.4333 201.774 97.4333 201.341 102.667 203.106C107.533 204.727 107.833 207.284 103.167 206.852Z" fill="url(#paint1_linear_633_1342)"/>
<path d="M103.833 151.687C103.967 155.073 94.8668 153.956 93.6001 153.884C89.6001 153.74 42.0668 154.604 42.0668 154.604C42.0668 154.604 31.8334 154.424 21.7001 154.244C13.5001 154.1 5.33345 153.956 2.66678 153.92C1.76678 153.92 0.900114 153.92 0.0334473 153.92V131.804C2.16678 131.444 4.30011 131.264 6.50011 131.084C8.63345 130.904 10.8334 131.048 12.9668 131.192C17.9001 131.516 22.0668 132.093 26.0334 135.478C27.1334 136.415 28.1334 137.387 29.1001 138.324C32.2334 141.385 35.2001 144.231 40.0668 144.375C45.1334 144.519 49.7334 140.593 54.8334 141.53C56.2334 141.782 60.9668 145.492 65.0334 146.428C69.1001 147.365 74.7668 144.591 81.7334 145.348C86.5668 145.852 89.3001 147.689 91.0334 148.697C91.8001 149.166 92.3668 149.454 92.8334 149.418C95.2668 149.31 97.6001 149.094 100.067 149.166C101.5 149.202 103.733 149.85 103.833 151.687Z" fill="url(#paint2_linear_633_1342)"/>
<path d="M360 0.451782V63.6787V64V64.1842V64.4731C356.582 64.5092 353.196 64.5453 349.778 64.4731C345.57 64.4009 337.649 64.6175 327.327 64.9425C289.527 66.098 220.008 68.7701 188.026 65.2314C147.333 60.7178 184.147 48.9462 186.941 46.4908C189.242 44.4326 191.608 42.266 194.337 40.8939C201.436 37.283 211.1 37.3913 218.726 37.8607C227.009 38.3663 235.555 39.269 243.608 36.4886C248.013 34.972 251.859 32.1555 255.869 29.7362C267.209 22.9116 278.253 15.6176 290.382 10.4901C295.049 8.54021 299.98 7.38472 304.812 6.01257C313.259 3.59327 322.035 1.7156 330.746 0.704545C331.173 0.668436 331.601 0.596218 332.028 0.560109C340.705 -0.306508 349.745 0.0184731 358.422 0.307345C358.915 0.379564 359.474 0.415673 360 0.451782Z" fill="url(#paint3_linear_633_1342)"/>
<path d="M360.067 116.237V239.638C358.9 239.819 357.834 239.963 357.2 240.107C355 240.539 352.8 240.971 350.6 241.403C343.467 242.736 336.367 243.817 329.067 244.321C305.534 245.942 281.834 245.654 258.167 245.185C244 244.897 229.867 244.573 215.767 244.573C205.334 244.573 194.9 244.573 184.467 244.573C175.667 244.573 166.9 244.537 158.1 244.501H158.067C150.9 244.465 143.767 244.429 136.6 244.357C136.567 244.357 136.567 244.357 136.534 244.357C131.734 244.321 126.934 244.249 122.167 244.213C111.367 244.069 100.567 243.889 89.7335 243.601C77.0002 243.312 64.2669 243.673 51.5669 243.024C49.3669 242.916 47.1669 242.772 44.9669 242.592C39.1335 242.124 32.8002 242.484 27.1002 241.115C25.3669 240.683 23.6669 240.071 21.9669 239.386C18.6669 238.054 15.3669 236.397 11.9669 235.424C9.33354 234.668 6.20021 235.064 3.53354 234.272C2.60021 233.983 1.73354 233.587 0.966878 232.939C0.166878 232.255 0.300212 231.498 0.466878 230.742C0.633545 230.057 0.833545 229.373 0.466878 228.725C0.366878 228.581 0.266878 228.436 0.133545 228.328V113.788C4.13354 116.165 7.83354 119.155 11.2335 122.504C13.4002 124.63 15.4002 126.899 17.3335 129.24C18.9002 131.185 20.4002 133.202 21.8335 135.219C24.1335 138.497 26.2335 141.847 28.1335 145.196C32.8002 153.301 36.4335 164.215 45.7669 168.249C48.6002 169.473 72.2002 159.712 87.3002 169.653C98.8335 177.253 116 199.261 152.7 200.45C188.3 201.602 212.567 187.411 232.334 175.525C232.967 175.164 233.567 174.768 234.2 174.408C234.667 174.12 235.134 173.832 235.634 173.543C237.2 172.607 238.7 171.634 240.234 170.626C243.1 168.753 245.967 166.844 248.834 165.043C254.4 161.477 260.1 158.199 266.534 155.822C273.567 153.229 281.3 151.428 288.8 152.364C296.067 153.265 303.467 155.786 310.834 155.354C314.634 155.138 319.1 152.328 322.567 150.887C324.134 150.239 325.634 149.519 327.067 148.762C339 142.423 346.267 132.482 355.134 122.108C355.867 121.064 357.9 118.29 360.067 116.237Z" fill="url(#paint4_linear_633_1342)"/>
<path d="M360.067 179.811V241.367H354.367C353.1 241.367 351.867 241.367 350.6 241.403C334.9 241.547 319.2 242.628 303.5 242.628C293.434 242.628 283.367 242.988 273.334 243.456C268.734 243.672 266.634 243.456 266.867 243.6L258.167 245.149L252.1 246.23C247.267 247.959 229.034 251.957 212 253.686C194.734 255.451 177.434 256.891 160.167 258.512C150.8 259.377 140.467 259.845 131.167 258.08C127.134 257.324 121 255.847 120.534 250.336C120.367 248.463 120.867 246.626 121.734 244.933C121.867 244.681 122.034 244.393 122.167 244.141C123.467 242.016 125.334 240.215 127.3 238.954C128 238.486 128.734 238.09 129.434 237.801C134.034 235.82 138.967 234.884 143.567 232.795C146.334 231.534 149.1 230.129 151.8 228.617C152.7 228.112 153.6 227.608 154.467 227.104C155.034 226.78 155.567 226.455 156.134 226.131C161 223.214 165.767 220.08 170.434 216.946C171.967 215.938 173.534 214.893 175.1 213.885C189.4 204.808 206.2 196.668 222.634 196.055C227.234 195.875 231.634 197.172 236.167 197.532C243.667 198.108 251.134 198.613 258.6 199.621C267.667 200.846 276.167 203.223 285.5 201.494C295.367 199.657 305.3 193.786 312.767 186.654C315.1 184.421 316.634 181.936 319.534 180.387C331.834 173.723 344.834 173.111 357.434 178.73C358.334 179.054 359.2 179.414 360.067 179.811Z" fill="url(#paint5_linear_633_1342)"/>
<path d="M154.867 226.095C154.767 226.455 154.633 226.78 154.433 227.068C153.933 227.824 153.067 228.365 151.767 228.581C150.8 228.761 149.6 228.761 148.167 228.581C136.133 226.996 124.267 227.14 112.167 226.924C109.9 226.888 107.6 226.852 105.333 226.78C101.633 226.672 97.9668 226.564 94.2668 226.419C91.5001 226.311 88.7668 226.203 86.0001 226.059C79.2334 225.771 72.4668 225.411 65.7001 225.123C61.2668 224.907 56.8334 224.727 52.4001 224.582C40.6334 224.15 28.8334 224.294 17.0668 224.582C12.0668 224.691 7.03343 223.79 2.9001 223.178C2.63343 223.142 2.6001 223.79 2.36676 223.754C1.46676 223.682 0.700098 223.394 0.100098 222.89V185.898C6.23343 180.927 19.2668 178.694 24.5334 178.874C33.0668 179.198 41.3001 182.152 49.6334 183.593C61.9001 185.718 74.9001 186.114 86.5001 191.625C92.6334 194.543 98.8001 199.729 104.3 204.592C105.667 205.817 107 207.005 108.3 208.122C110.967 210.463 114.4 214.245 117.667 215.434C122.333 217.127 129 215.434 133.6 214.245C145.967 211.111 156.033 221.125 154.867 226.095Z" fill="url(#paint6_linear_633_1342)"/>
<path d="M117.034 239.134C114.6 239.026 110.967 238.882 105.867 238.738C88.5336 238.306 71.3002 237.009 53.9336 238.486C53.2002 238.558 52.4336 238.594 51.7002 238.666C42.0669 239.458 31.8336 239.999 21.9336 239.314C18.2002 239.062 14.5336 238.63 10.9669 238.017C8.80023 237.621 5.83356 236.217 3.46689 234.235C2.23356 233.191 1.13356 232.002 0.400228 230.706C0.266895 230.489 0.166895 230.273 0.0668945 230.057V219.252L0.466895 214.605L1.80023 198.685C5.46689 197.1 10.5336 198.324 14.4669 197.748C33.5669 194.939 59.9002 201.17 76.8336 212.588C77.7336 213.2 78.6002 213.813 79.4669 214.461C79.9669 214.857 80.4669 215.217 80.9669 215.614C85.3336 218.999 89.6002 222.565 93.8669 226.095C94.0002 226.203 94.1336 226.311 94.3002 226.455C95.4669 227.428 96.6336 228.364 97.8002 229.337C101.4 232.254 104.634 236.289 109.134 237.585C111.834 238.342 114.734 238.846 117.034 239.134Z" fill="url(#paint7_linear_633_1342)"/>
<path d="M360.033 248H0.0334473V643H360.033V248Z" fill="url(#paint8_linear_633_1342)"/>
<path d="M117.033 239.134C123.733 239.494 121.6 239.71 117.033 239.134V239.134Z" fill="url(#paint9_linear_633_1342)"/>
<path d="M74.2333 218.711C76.8333 218.711 88.5667 210.823 91.9 209.274C102.9 204.268 114.367 201.17 126.367 200.774C144.933 200.161 176.5 214.425 176.5 214.425C176.5 214.425 211.233 235.784 236.833 240.179C240.4 240.791 189.333 243.961 185.933 244.357C173.067 245.834 159.8 244.105 146.9 244.105C121.467 244.105 96.2333 247.166 70.7667 247.166C65.7333 247.166 49.9667 250.084 51.3667 239.638C51.6333 237.657 55.5667 234.884 56.8333 233.515C60.7 229.337 65.5333 224.762 70.3667 221.953C73.1667 220.332 76.5 220.26 79.1 218.171L74.2333 218.711Z" fill="url(#paint10_linear_633_1342)"/>
<path d="M360.067 209.995V274.073C352.1 277.891 325.334 293.379 322.034 293.595C319.634 293.739 317.334 293.883 315.2 294.063C307.667 294.603 299.6 295.612 291.7 297.197C289.867 297.557 288.067 297.953 286.267 298.421C286.1 298.457 250.567 262.583 189.6 276.522C148.934 285.851 96.6669 315.35 94.8336 315.386C88.1336 315.495 81.4669 315.567 74.8336 315.567H74.7336C72.3002 315.567 71.3669 310.704 68.6669 310.884C68.6669 310.884 59.3669 302.708 55.3669 301.663C50.8002 300.475 30.6002 295.432 23.9669 294.099C19.0669 293.163 2.70023 300.294 2.03356 300.078C1.40023 299.862 0.733561 299.682 0.0668945 299.538V214.713C0.200228 214.677 0.333561 214.641 0.466895 214.605C21.0336 209.31 41.1336 206.105 62.3336 209.058C67.3002 209.743 72.1002 210.967 76.8336 212.588C78.7336 213.236 80.6336 213.957 82.5002 214.713C85.9669 216.154 89.4002 217.739 92.7669 219.468C96.6336 221.449 100.4 223.718 104.2 226.059C104.567 226.311 104.967 226.527 105.334 226.78C112.5 231.246 119.634 235.892 127.267 238.918C132.134 240.863 137.234 242.196 142.667 242.412C163 243.276 182.1 233.515 201.534 227.824C203.4 227.284 205.234 226.78 207.1 226.311C207.434 226.239 207.8 226.131 208.134 226.059C223.2 222.421 238.767 220.476 254 217.955C278.4 213.921 302.9 209.851 327.6 209.022C337.9 208.698 349.134 208.554 360.067 209.995Z" fill="url(#paint11_linear_633_1342)"/>
<path d="M0.0667806 301.951V301.087C0.733447 300.727 1.36678 300.367 2.03345 300.042C15.2001 293.451 30.2334 291.974 44.3668 297.053C59.2334 302.42 74.0001 315.35 90.4668 313.874C103.267 312.721 115.267 304.113 126.233 297.737C136 292.046 146.133 288.012 156.533 284.086C159.833 282.825 163.2 280.376 166.633 279.764C171.433 278.899 176.3 277.098 181.167 276.81C187 276.486 193.067 276.63 198.833 275.91C205.6 275.081 213.467 273.46 220.3 274.325C225.2 274.937 230.1 275.766 235.033 276.738C242.667 278.215 250.267 280.088 257.767 282.141C259.867 282.717 261.967 283.294 264.033 283.906C267.533 284.914 268.967 286.715 268.9 288.624C268.867 289.129 268.733 289.597 268.533 290.101C267 293.595 260.867 296.837 253.3 295.72C244 294.351 234.5 293.919 225.1 293.919C223.267 293.919 217.167 293.883 216.667 296.44C215.633 301.951 222.667 302.708 226.133 303.716C231.6 305.301 246.5 306.742 255.667 307.606C258.733 307.895 261.133 308.111 262.333 308.255C264.733 308.543 277.5 309.804 275.367 315.531C273.533 320.501 254.7 314.918 250.967 313.73C246.167 312.181 241.3 310.992 236.4 310.092C222.367 307.498 207.9 307.138 193.733 307.138C190.033 307.138 182 307.102 177.633 309.912C176.4 310.704 175.467 311.749 175 313.045C173.167 318.376 182.767 317.98 185.733 318.268C195.967 319.277 206.267 317.187 216.467 318.484C218.167 318.7 230.667 320.321 228.667 323.023C226.833 325.58 215.767 323.959 210.167 325.292C187.7 330.695 178.833 332.279 167.633 332.82C160.133 333.18 140.767 333.9 139.9 330.046C139.233 327.165 149.067 327.561 150.2 327.561C158.733 327.561 166.967 329.146 175.467 329.146C177.4 329.146 181.367 329.146 182.4 326.877C184.467 322.41 173.467 320.969 171.867 320.753C162.8 319.529 153.1 318.952 144.3 316.431C143.467 316.179 140.133 314.558 138.667 313.045C138.2 312.541 137.933 312.073 138 311.641C138.367 308.795 143.033 306.922 145.167 306.418C152.667 304.617 160.533 304.653 167.9 302.564C169.7 302.059 178.367 298.71 176.1 295.072C172.767 289.669 161.067 291.434 156.333 293.019C153.633 293.919 137.233 300.475 120.333 306.706C120.333 306.706 120.333 306.706 120.3 306.706C120.3 306.706 120.3 306.706 120.267 306.706C111.267 310.02 102.133 313.225 94.8334 315.423C87.9668 317.512 82.7001 318.7 80.7668 318.268C78.4668 317.728 76.5668 316.755 74.8334 315.603C72.1001 313.802 69.7668 311.496 66.6668 309.623C62.3334 307.03 54.8668 305.95 48.2001 306.382H48.1668C44.3334 306.634 40.7668 307.354 38.2334 308.543C37.4334 308.939 36.7001 309.371 36.1334 309.876C33.1334 312.433 51.7001 312.181 49.8001 315.567C48.9334 317.115 42.7668 316.395 41.3668 316.251C39.1001 316.035 21.2001 309.371 17.6001 308.507C12.1668 307.246 4.90011 307.822 0.0334473 310.956V301.951H0.0667806Z" fill="url(#paint12_linear_633_1342)"/>
<path d="M360.067 265.968V280.376C310.967 298.313 312.8 322.482 258.933 286.247C243.8 278.431 225.267 276.99 208.867 277.819C163.067 281.673 151.567 291.11 113.667 309.912C64.4668 332.676 65.6668 306.238 27.3001 299.682C18.6001 298.313 8.93343 298.89 0.100098 301.951V288.12C75.8001 269.426 43.5001 327.849 132.933 284.446C151.8 277.314 171.9 273.82 191.633 270.11C274.867 259.701 276.3 314.846 340.767 272.344C346.933 268.706 352.733 266.256 360.067 265.968Z" fill="url(#paint13_linear_633_1342)"/>
<path fill-rule="evenodd" clip-rule="evenodd" d="M168.069 262.492C167.412 262.557 167.708 262.607 167.175 262.403Z" fill="#454C36"/>
<path fill-rule="evenodd" clip-rule="evenodd" d="M120.152 281.818C120.071 281.77 120.866 282.217 121.048 282.318C121.352 282.486 121.905 282.975 122.298 282.818C122.365 282.791 122.516 282.366 122.59 282.276C123.147 281.607 123.332 281.576 124.132 281.443C124.194 281.432 124.745 281.306 124.798 281.359C125.096 281.657 124.868 283.109 124.798 283.526C124.765 283.728 124.757 283.992 124.757 284.193C124.757 284.291 124.715 284.583 124.715 284.485C124.715 283.362 126.589 284.208 127.049 283.901C127.124 283.851 126.69 283.14 126.674 283.11C126.512 282.813 126.48 282.342 126.34 282.11C126.251 281.96 125.872 282.09 125.882 282.11C125.904 282.153 127.32 282.026 127.465 282.026C127.978 282.026 128.916 282.497 129.424 282.193C129.649 282.057 129.735 281.631 129.924 281.443C129.99 281.376 130.424 281.123 130.424 281.026C130.424 280.99 128.746 281.183 128.632 281.193C128.494 281.204 128.138 281.308 128.215 281.193C128.339 281.007 131.749 279.883 131.757 279.859C131.821 279.667 130.832 279.245 130.674 279.193C130.531 279.145 130.449 278.943 130.299 278.943C129.513 278.943 128.302 280.032 127.257 279.901C125.938 279.736 124.632 279.537 123.257 279.609C123.011 279.622 122.547 279.792 122.298 279.693C122.057 279.596 122.086 279.426 121.757 279.401C121.326 279.368 120.845 279.485 120.423 279.401C120.199 279.356 118.483 279.126 118.34 279.318C118.327 279.334 118.482 280.681 118.59 280.734C118.914 280.897 121.054 280.276 121.59 280.276C121.743 280.276 122.048 280.123 122.048 280.276C122.048 280.568 120.561 282.057 120.152 281.818Z" fill="#543631"/>
<path fill-rule="evenodd" clip-rule="evenodd" d="M123.473 280.237C123.533 280.396 122.884 279.897 122.77 279.783C122.298 279.312 121.773 279.116 121.207 278.783C119.594 277.834 119.337 275.063 120.238 273.562C120.829 272.576 122.15 271.969 122.457 270.843C122.556 270.479 122.535 268.084 122.645 268.029C122.671 268.016 122.707 268.37 122.707 268.373C122.744 268.633 122.848 268.877 122.957 269.123C123.18 269.623 124.176 272.765 124.708 272.499C125.273 272.217 125.078 271.251 125.114 270.749C125.216 269.321 125.416 267.9 126.146 266.622C126.242 266.455 126.446 265.616 126.615 265.56C126.772 265.507 126.68 265.893 126.677 265.903C126.468 266.672 126.244 267.483 126.177 268.279C126.103 269.168 125.919 270.481 126.302 271.312C126.646 272.057 126.896 272.402 126.896 273.281C126.896 273.754 126.171 274.721 126.74 275.063C128.135 275.9 127.678 272.045 127.678 271.78C127.678 271.449 127.728 271.109 127.772 270.78C127.792 270.623 127.793 269.395 127.897 269.498C128 269.602 127.932 271.232 128.022 271.593C128.508 273.537 128.883 275.177 128.553 277.157C128.406 278.038 129.106 278.598 128.397 279.408C127.579 280.343 126.378 280.865 125.083 280.721C124.889 280.699 123.421 280.096 123.473 280.237Z" fill="#E94420"/>
<path fill-rule="evenodd" clip-rule="evenodd" d="M110.857 271.627C110.857 264.108 117.206 258.013 125.038 258.013C132.87 258.013 139.218 264.108 139.218 271.627C139.218 279.146 132.87 285.241 125.038 285.241C117.206 285.241 110.857 279.146 110.857 271.627Z" fill="url(#paint14_radial_633_1342)"/>
<path fill-rule="evenodd" clip-rule="evenodd" d="M124.758 278.806C124.758 279.369 123.498 278.555 123.393 278.489C122.594 277.99 122.122 277.373 122.187 276.394C122.249 275.465 123.061 274.808 123.298 273.919C123.668 272.532 123.386 271.085 123.584 269.698C123.701 268.879 123.639 268.253 123.933 267.445C124.046 267.135 124.227 266.829 124.409 266.556C124.446 266.501 124.472 266.366 124.472 266.366C124.472 266.366 124.349 266.526 124.314 266.62C124.12 267.136 124.087 267.688 124.123 268.239C124.203 269.44 125.012 270.668 125.012 271.729C125.012 272.174 124.763 274.544 125.202 274.617C126.428 274.822 126.393 271.053 126.567 270.301C126.668 269.864 126.8 269.429 127.011 269.032C127.083 268.898 127.187 268.781 127.265 268.651C127.292 268.606 127.36 268.471 127.36 268.524C127.36 268.75 127.08 269.129 127.011 269.349C126.854 269.852 126.789 270.411 126.789 270.936C126.789 271.934 127.325 272.822 127.519 273.792C127.856 275.478 127.155 275.936 126.662 277.251C126.5 277.685 126.769 278.218 126.599 278.616C126.16 279.64 124.31 278.961 123.806 278.457" fill="#FDBD19" fill-opacity="0.768018"/>
<path fill-rule="evenodd" clip-rule="evenodd" d="M113.987 281.029L113.922 280.98L113.906 280.915L113.938 280.898H114.004" fill="#FDBD19" fill-opacity="0.768018"/>
<path fill-rule="evenodd" clip-rule="evenodd" d="M124.37 280.197C124.439 280.217 123.773 280.245 123.621 280.245C123.154 280.245 122.612 280.167 122.171 280.02C120.665 279.518 119.852 278.633 119.191 277.217C118.523 275.786 119.451 274.017 119.916 272.674C120.07 272.228 120.113 271.795 120.19 271.337C120.217 271.17 120.246 271.005 120.27 270.837C120.275 270.804 120.253 270.623 120.238 270.66C120.009 271.233 120.222 272.312 120.222 272.932C120.222 273.452 120.066 273.991 120.109 274.51C120.325 277.096 121.513 277.641 123.54 278.747C123.88 278.933 124.224 279.342 124.394 279.682C124.501 279.895 124.37 280.197 124.37 280.197Z" fill="#FDBD19" fill-opacity="0.768018"/>
<path fill-rule="evenodd" clip-rule="evenodd" d="M125.301 266.665C125.154 266.904 125.29 266.307 125.312 266.196C125.384 265.838 125.442 265.232 125.708 264.967C125.767 264.907 125.895 264.8 125.895 264.8C125.895 264.8 125.57 265.246 125.541 265.509C125.473 266.123 125.631 266.132 125.301 266.665Z" fill="#FDBD19" fill-opacity="0.768018"/>
<path fill-rule="evenodd" clip-rule="evenodd" d="M121.279 269.25C121.255 269.263 121.259 268.995 121.247 268.948C121.098 268.349 121.099 267.933 121.352 267.343C121.396 267.24 121.468 266.951 121.518 267.051C121.58 267.174 121.307 267.661 121.289 267.822C121.219 268.453 121.938 268.889 121.279 269.25Z" fill="#FDBD19" fill-opacity="0.768018"/>
<path fill-rule="evenodd" clip-rule="evenodd" d="M129.157 274.148C129.039 273.995 129.26 273.823 129.313 273.637C129.361 273.471 129.397 273.316 129.397 273.137C129.397 273.028 129.349 272.954 129.313 273.095C129.311 273.107 129.672 274.813 129.157 274.148Z" fill="#FDBD19" fill-opacity="0.768018"/>
<path fill-rule="evenodd" clip-rule="evenodd" d="M129.063 278.618C128.986 278.536 129.31 278.086 129.355 277.951C129.363 277.928 129.378 277.533 129.355 277.555C129.246 277.665 129.693 279.294 129.063 278.618Z" fill="#FDBD19" fill-opacity="0.768018"/>
<path fill-rule="evenodd" clip-rule="evenodd" d="M124.722 284.34C124.731 284.219 124.734 284.094 124.779 284.019C124.858 283.887 125.131 283.863 125.262 283.798C125.767 283.546 126.06 283.983 126.505 283.895C126.667 283.862 126.747 283.649 126.947 283.729C127.031 283.762 127.094 283.813 127.113 283.908C127.278 284.734 125.908 284.406 125.566 284.474C125.332 284.521 125.171 284.777 124.917 284.82C124.636 284.867 124.716 284.428 124.722 284.34Z" fill="#80605B"/>
<path fill-rule="evenodd" clip-rule="evenodd" d="M118.284 279.388C118.271 279.43 118.287 279.418 118.268 279.552C118.24 279.745 118.296 280.79 118.637 280.733C118.915 280.687 118.724 279.577 118.59 279.4C118.41 279.159 118.301 279.333 118.284 279.388Z" fill="#80605B"/>
<path fill-rule="evenodd" clip-rule="evenodd" d="M122.185 282.722C121.908 282.246 123.942 280.515 124.267 280.623C124.352 280.651 123.904 280.963 123.877 280.98C123.609 281.148 123.336 281.317 123.095 281.524C122.802 281.775 122.341 282.99 122.185 282.722Z" fill="#80605B"/>
<path fill-rule="evenodd" clip-rule="evenodd" d="M167.54 253.861L126.693 262.732L157.582 276.473L183.757 260.504L167.54 253.861Z" fill="url(#paint15_linear_633_1342)"/>
<path fill-rule="evenodd" clip-rule="evenodd" d="M137.072 247.54L129.38 262.828L149.861 271.06L137.072 247.54Z" fill="url(#paint16_linear_633_1342)"/>
<path fill-rule="evenodd" clip-rule="evenodd" d="M136.956 248.148H136.532L136.543 265.821L136.887 265.942L136.956 248.148Z" fill="black"/>
<path fill-rule="evenodd" clip-rule="evenodd" d="M126.638 262.802L129.386 262.824L136.951 248.226L136.443 247.265C136.443 247.265 128.51 261.525 128.181 262.034C127.852 262.543 126.638 262.802 126.638 262.802Z" fill="#594947"/>
<path fill-rule="evenodd" clip-rule="evenodd" d="M165.117 239.951L136.442 247.266C136.442 247.266 138.422 254.805 141.242 260.241C143.976 265.509 150 271.86 150 271.86L178.45 258.453C178.45 258.453 173.375 254.331 170.434 249.703C167.493 245.075 165.117 239.951 165.117 239.951Z" fill="url(#paint17_linear_633_1342)"/>
<path fill-rule="evenodd" clip-rule="evenodd" d="M151.278 270.742C151.278 270.68 151.015 270.631 150.691 270.631C150.366 270.631 150.103 270.68 150.103 270.742C150.103 270.803 150.366 270.853 150.691 270.853C151.015 270.853 151.278 270.803 151.278 270.742Z" fill="#2B2322"/>
<path fill-rule="evenodd" clip-rule="evenodd" d="M151.52 269.965L149.812 269.96C149.812 269.96 150.078 270.18 150.153 270.368C150.229 270.557 150.123 270.73 150.123 270.73C150.123 270.73 150.367 270.755 150.64 270.753C150.912 270.751 151.214 270.722 151.214 270.722C151.214 270.722 151.117 270.549 151.198 270.356C151.28 270.163 151.52 269.965 151.52 269.965Z" fill="black"/>
<path fill-rule="evenodd" clip-rule="evenodd" d="M151.53 269.96C151.53 269.911 151.145 269.87 150.67 269.87C150.195 269.87 149.81 269.909 149.81 269.959C149.81 270.008 150.195 270.048 150.67 270.049C151.145 270.049 151.53 270.009 151.53 269.96Z" fill="#303030"/>
<path fill-rule="evenodd" clip-rule="evenodd" d="M150.192 271.073L129.383 262.719L126.693 262.799L150.112 271.916L150.192 271.073Z" fill="#594947" fill-opacity="0.320957"/>
<path fill-rule="evenodd" clip-rule="evenodd" d="M177.794 258.352C177.794 258.316 177.641 258.287 177.452 258.287C177.263 258.287 177.11 258.316 177.11 258.352C177.11 258.387 177.263 258.416 177.452 258.416C177.641 258.416 177.794 258.387 177.794 258.352Z" fill="#2B2322"/>
<path fill-rule="evenodd" clip-rule="evenodd" d="M177.934 257.9L176.941 257.897C176.941 257.897 177.096 258.025 177.14 258.134C177.184 258.244 177.122 258.345 177.122 258.345C177.122 258.345 177.264 258.359 177.422 258.358C177.581 258.357 177.756 258.34 177.756 258.34C177.756 258.34 177.7 258.239 177.747 258.127C177.794 258.015 177.934 257.9 177.934 257.9Z" fill="black"/>
<path fill-rule="evenodd" clip-rule="evenodd" d="M177.94 257.897C177.94 257.868 177.716 257.845 177.44 257.845C177.164 257.844 176.94 257.868 176.94 257.896C176.94 257.925 177.164 257.948 177.44 257.948C177.716 257.949 177.94 257.926 177.94 257.897Z" fill="#303030"/>
<path fill-rule="evenodd" clip-rule="evenodd" d="M74.4638 259.754L115.933 268.625L86.3557 283.322L58 266.397L74.4638 259.754Z" fill="url(#paint18_linear_633_1342)"/>
<path fill-rule="evenodd" clip-rule="evenodd" d="M106.12 246.589L113.929 261.877L114.051 268.607L93.7825 278.336L92.6101 270.315L106.12 246.589Z" fill="url(#paint19_linear_633_1342)"/>
<path fill-rule="evenodd" clip-rule="evenodd" d="M106.239 247.197H106.668L110.822 270.227L106.598 272.221L106.239 247.197Z" fill="black"/>
<path fill-rule="evenodd" clip-rule="evenodd" d="M106.799 247.285L106.128 247.054L109.373 262.19L110.822 270.227C110.822 270.227 111.308 268.769 111.975 268.064C112.643 267.36 113.492 267.41 113.492 267.41C113.492 267.41 111.913 265.154 110.151 260.363C108.388 255.572 106.799 247.285 106.799 247.285Z" fill="url(#paint20_linear_633_1342)"/>
<path fill-rule="evenodd" clip-rule="evenodd" d="M116.713 261.851L113.924 261.874L106.244 247.276L106.759 246.315C106.759 246.315 114.812 260.574 115.147 261.083C115.481 261.592 116.713 261.851 116.713 261.851Z" fill="#594947"/>
<path fill-rule="evenodd" clip-rule="evenodd" d="M65.3008 257.273L93.9131 268.081L93.7873 278.334L93.4006 278.15L65.9251 265.042L65.3008 257.273Z" fill="url(#paint21_linear_633_1342)"/>
<path fill-rule="evenodd" clip-rule="evenodd" d="M77.6485 239L106.76 246.315C106.76 246.315 104.75 253.855 101.887 259.29C99.1112 264.559 92.9958 270.909 92.9958 270.909L64.1123 257.502C64.1123 257.502 69.2647 253.381 72.2505 248.753C75.2362 244.125 77.6485 239 77.6485 239Z" fill="#675552"/>
<path fill-rule="evenodd" clip-rule="evenodd" d="M86.5549 281.712C86.5549 281.651 86.8221 281.601 87.1517 281.601C87.4812 281.601 87.7485 281.651 87.7485 281.712C87.7485 281.773 87.4812 281.823 87.1517 281.823C86.8221 281.823 86.5549 281.773 86.5549 281.712Z" fill="#2B2322"/>
<path fill-rule="evenodd" clip-rule="evenodd" d="M86.3103 280.936L88.0443 280.93C88.0443 280.93 87.774 281.15 87.6972 281.338C87.6203 281.527 87.7283 281.701 87.7283 281.701C87.7283 281.701 87.4806 281.725 87.2036 281.723C86.9268 281.721 86.6208 281.692 86.6208 281.692C86.6208 281.692 86.7187 281.519 86.6363 281.326C86.5538 281.133 86.3103 280.936 86.3103 280.936Z" fill="black"/>
<path fill-rule="evenodd" clip-rule="evenodd" d="M86.2996 280.93C86.2996 280.881 86.6904 280.841 87.1726 280.84C87.6546 280.84 88.0455 280.88 88.0455 280.929C88.0455 280.978 87.6548 281.018 87.1727 281.019C86.6905 281.019 86.2997 280.98 86.2996 280.93Z" fill="#303030"/>
<path fill-rule="evenodd" clip-rule="evenodd" d="M60.9473 267.831C60.9473 267.795 61.1026 267.766 61.2941 267.766C61.4857 267.766 61.641 267.795 61.641 267.831C61.641 267.867 61.4857 267.895 61.2941 267.895C61.1026 267.895 60.9473 267.867 60.9473 267.831Z" fill="#2B2322"/>
<path fill-rule="evenodd" clip-rule="evenodd" d="M60.8049 267.379L61.8127 267.376C61.8127 267.376 61.6557 267.504 61.611 267.614C61.5663 267.723 61.629 267.824 61.629 267.824C61.629 267.824 61.4851 267.839 61.3242 267.837C61.1632 267.836 60.9854 267.819 60.9854 267.819C60.9854 267.819 61.0423 267.718 60.9944 267.606C60.9465 267.494 60.8049 267.379 60.8049 267.379Z" fill="black"/>
<path fill-rule="evenodd" clip-rule="evenodd" d="M60.7988 267.376C60.7988 267.348 61.0259 267.324 61.3061 267.324C61.5864 267.324 61.8135 267.347 61.8136 267.375C61.8136 267.404 61.5864 267.428 61.3062 267.428C61.026 267.428 60.7988 267.405 60.7988 267.376Z" fill="#303030"/>
<path fill-rule="evenodd" clip-rule="evenodd" d="M116.507 267.928C116.507 267.867 116.774 267.817 117.104 267.817C117.434 267.817 117.701 267.867 117.701 267.928C117.701 267.989 117.434 268.039 117.104 268.039C116.774 268.039 116.507 267.989 116.507 267.928Z" fill="#2B2322"/>
<path fill-rule="evenodd" clip-rule="evenodd" d="M116.263 267.151L117.997 267.146C117.997 267.146 117.727 267.366 117.65 267.554C117.573 267.743 117.681 267.917 117.681 267.917C117.681 267.917 117.433 267.941 117.156 267.939C116.879 267.937 116.573 267.908 116.573 267.908C116.573 267.908 116.671 267.735 116.589 267.542C116.506 267.349 116.263 267.151 116.263 267.151Z" fill="black"/>
<path fill-rule="evenodd" clip-rule="evenodd" d="M116.252 267.146C116.252 267.097 116.643 267.057 117.125 267.056C117.607 267.056 117.998 267.095 117.998 267.145C117.998 267.194 117.607 267.234 117.125 267.235C116.643 267.235 116.252 267.195 116.252 267.146Z" fill="#303030"/>
<path fill-rule="evenodd" clip-rule="evenodd" d="M92.0894 269.845C92.0894 269.606 92.3637 269.413 92.702 269.413C93.0404 269.413 93.3146 269.606 93.3146 269.845C93.3146 270.084 93.0404 270.278 92.702 270.278C92.3637 270.278 92.0894 270.084 92.0894 269.845Z" fill="#303030"/>
<path fill-rule="evenodd" clip-rule="evenodd" d="M64.8848 257.521C64.8848 257.391 65.058 257.285 65.2716 257.285C65.4853 257.285 65.6585 257.391 65.6585 257.521C65.6585 257.652 65.4853 257.757 65.2716 257.757C65.058 257.757 64.8848 257.652 64.8848 257.521Z" fill="#303030"/>
<path fill-rule="evenodd" clip-rule="evenodd" d="M92.44 269.962C92.5115 269.869 92.2214 269.934 92.166 269.962C91.9451 270.072 91.3976 270.618 91.7399 270.875C91.8952 270.992 92.4653 270.789 92.3082 270.631C92.2736 270.597 92.2659 270.724 92.2269 270.753C92.1598 270.804 92.017 270.853 91.9427 270.794C91.6926 270.594 91.9162 270.158 92.1864 270.104C92.245 270.092 92.3686 270.138 92.4095 270.124C92.4512 270.11 92.4104 270 92.44 269.962Z" fill="black"/>
<path d="M91.7977 270.738L87.4006 281.469" stroke="black" stroke-width="0.000995259" stroke-miterlimit="10" stroke-linecap="round" stroke-linejoin="round"/>
<path fill-rule="evenodd" clip-rule="evenodd" d="M65.2548 257.42C65.31 257.341 65.0861 257.396 65.0433 257.42C64.8726 257.514 64.4499 257.979 64.7141 258.198C64.8341 258.297 65.2744 258.124 65.153 257.991C65.1264 257.961 65.1204 258.069 65.0903 258.094C65.0385 258.137 64.9281 258.179 64.8709 258.129C64.6776 257.958 64.8504 257.587 65.059 257.541C65.1043 257.531 65.1998 257.57 65.2314 257.558C65.2635 257.546 65.232 257.452 65.2548 257.42Z" fill="black"/>
<path d="M64.7588 258.081L61.449 267.595" stroke="black" stroke-width="0.000995259" stroke-miterlimit="10" stroke-linecap="round" stroke-linejoin="round"/>
<path d="M115.542 261.92L117.076 267.509" stroke="black" stroke-width="0.000995259" stroke-miterlimit="10" stroke-linecap="round" stroke-linejoin="round"/>
<path fill-rule="evenodd" clip-rule="evenodd" d="M81.1058 245.688L93.7372 249.164C93.7372 249.164 92.8651 252.747 91.6227 255.33C90.4185 257.833 87.7649 260.851 87.7649 260.851L74.948 255.809C74.948 255.809 76.9644 253.784 78.2599 251.585C79.5555 249.386 81.1058 245.688 81.1058 245.688Z" fill="#544846" stroke="black" stroke-width="0.000995259" stroke-miterlimit="10" stroke-linecap="round" stroke-linejoin="round"/>
<path fill-rule="evenodd" clip-rule="evenodd" d="M91.6227 255.33C91.6227 255.33 90.7488 256.921 89.7844 258.302C88.82 259.682 87.7649 260.851 87.7649 260.851L74.948 255.809C74.948 255.809 75.76 255.207 77.2735 253.145C78.784 251.088 91.6227 255.33 91.6227 255.33Z" fill="url(#paint22_linear_633_1342)"/>
<path fill-rule="evenodd" clip-rule="evenodd" d="M75.9856 252.758C75.9856 252.758 77.3264 251.234 78.2513 250.938C79.1762 250.642 91.6568 255.374 91.6568 255.374C91.6568 255.374 89.4423 254.563 89.8122 256.487C87.3361 256.127 75.9856 252.758 75.9856 252.758Z" fill="url(#paint23_linear_633_1342)"/>
<path fill-rule="evenodd" clip-rule="evenodd" d="M99.6653 253.479C99.621 253.506 99.5768 253.532 99.5325 253.559Z" fill="#544846"/>
<path fill-rule="evenodd" clip-rule="evenodd" d="M90.2151 254.654C90.2331 254.672 90.2513 254.69 90.2695 254.708Z" fill="#544846"/>
</g>
<defs>
<linearGradient id="paint0_linear_633_1342" x1="180.033" y1="21.5247" x2="180.033" y2="267" gradientUnits="userSpaceOnUse">
<stop stop-color="#1AB7EA"/>
<stop offset="0.0001" stop-color="#1AB7EA"/>
<stop offset="0.9999" stop-color="white"/>
<stop offset="1" stop-color="#FFF9D4"/>
</linearGradient>
<linearGradient id="paint1_linear_633_1342" x1="70.492" y1="246.65" x2="42.7602" y2="190.51" gradientUnits="userSpaceOnUse">
<stop stop-color="#FFF9D4"/>
<stop offset="1" stop-color="#1AB7EA"/>
</linearGradient>
<linearGradient id="paint2_linear_633_1342" x1="56.0097" y1="169.612" x2="44.1313" y2="127.475" gradientUnits="userSpaceOnUse">
<stop stop-color="#FFF9D4"/>
<stop offset="1" stop-color="#1AB7EA"/>
</linearGradient>
<linearGradient id="paint3_linear_633_1342" x1="217.42" y1="112.657" x2="351.253" y2="-9.17032" gradientUnits="userSpaceOnUse">
<stop offset="0.1457" stop-color="#1DA1DC" stop-opacity="0.3"/>
<stop offset="0.7671" stop-color="#D5ECFB" stop-opacity="0.69"/>
</linearGradient>
<linearGradient id="paint4_linear_633_1342" x1="179.106" y1="108.95" x2="181.042" y2="218.207" gradientUnits="userSpaceOnUse">
<stop stop-color="#91E069"/>
<stop offset="0.8512" stop-color="#35794B"/>
</linearGradient>
<linearGradient id="paint5_linear_633_1342" x1="239.048" y1="163.304" x2="241.807" y2="262.61" gradientUnits="userSpaceOnUse">
<stop stop-color="#84CE5F"/>
<stop offset="0.7851" stop-color="#247D44"/>
</linearGradient>
<linearGradient id="paint6_linear_633_1342" x1="0.0667643" y1="203.803" x2="204.989" y2="203.803" gradientUnits="userSpaceOnUse">
<stop stop-color="#84CE5F"/>
<stop offset="0.7851" stop-color="#216D3C"/>
</linearGradient>
<linearGradient id="paint7_linear_633_1342" x1="0.0668945" y1="218.354" x2="226.96" y2="218.354" gradientUnits="userSpaceOnUse">
<stop stop-color="#84CE5F"/>
<stop offset="0.7851" stop-color="#216D3C"/>
</linearGradient>
<linearGradient id="paint8_linear_633_1342" x1="180.033" y1="642.982" x2="180.033" y2="248.007" gradientUnits="userSpaceOnUse">
<stop stop-color="#005CCA" stop-opacity="0"/>
<stop offset="0.7671" stop-color="#3778FF"/>
</linearGradient>
<linearGradient id="paint9_linear_633_1342" x1="117.027" y1="239.307" x2="125.295" y2="239.307" gradientUnits="userSpaceOnUse">
<stop stop-color="#84CE5F"/>
<stop offset="0.7851" stop-color="#216D3C"/>
</linearGradient>
<linearGradient id="paint10_linear_633_1342" x1="51.2305" y1="224.189" x2="200.519" y2="224.189" gradientUnits="userSpaceOnUse">
<stop stop-color="#84CE5F"/>
<stop offset="0.7851" stop-color="#216D3C"/>
</linearGradient>
<linearGradient id="paint11_linear_633_1342" x1="179.515" y1="218.029" x2="181.378" y2="324.315" gradientUnits="userSpaceOnUse">
<stop stop-color="#84CE5F"/>
<stop offset="0.7851" stop-color="#0C5C28"/>
</linearGradient>
<linearGradient id="paint12_linear_633_1342" x1="42.8527" y1="288.473" x2="294.674" y2="311.539" gradientUnits="userSpaceOnUse">
<stop stop-color="#75F2F4" stop-opacity="0.1618"/>
<stop offset="0.9566" stop-color="#52BDFF" stop-opacity="0.2495"/>
</linearGradient>
<linearGradient id="paint13_linear_633_1342" x1="0.0667643" y1="292.48" x2="360.067" y2="292.48" gradientUnits="userSpaceOnUse">
<stop stop-color="#CEBB5F"/>
<stop offset="0.9566" stop-color="#F2EFA4"/>
</linearGradient>
<radialGradient id="paint14_radial_633_1342" cx="0" cy="0" r="1" gradientUnits="userSpaceOnUse" gradientTransform="translate(125.038 271.627) scale(14.1806 12.7337)">
<stop stop-color="#FDDF19" stop-opacity="0.445946"/>
<stop offset="1" stop-color="white" stop-opacity="0.01"/>
</radialGradient>
<linearGradient id="paint15_linear_633_1342" x1="158" y1="273.154" x2="150.361" y2="255.453" gradientUnits="userSpaceOnUse">
<stop stop-color="#594947" stop-opacity="0"/>
<stop offset="1" stop-color="#2B2322"/>
</linearGradient>
<linearGradient id="paint16_linear_633_1342" x1="136.183" y1="268.762" x2="136.412" y2="249.306" gradientUnits="userSpaceOnUse">
<stop stop-color="#5F4D42"/>
<stop offset="1" stop-color="#191817"/>
</linearGradient>
<linearGradient id="paint17_linear_633_1342" x1="161.258" y1="268.38" x2="151.518" y2="240.616" gradientUnits="userSpaceOnUse">
<stop stop-color="#675552"/>
<stop offset="0.442149" stop-color="#807464"/>
<stop offset="1" stop-color="#8F6348"/>
</linearGradient>
<linearGradient id="paint18_linear_633_1342" x1="84.1489" y1="279.047" x2="91.7092" y2="261.263" gradientUnits="userSpaceOnUse">
<stop stop-color="#594947" stop-opacity="0"/>
<stop offset="1" stop-color="#2B2322"/>
</linearGradient>
<linearGradient id="paint19_linear_633_1342" x1="106.815" y1="275.508" x2="106.195" y2="248.827" gradientUnits="userSpaceOnUse">
<stop stop-color="#685142"/>
<stop offset="1" stop-color="#191817"/>
</linearGradient>
<linearGradient id="paint20_linear_633_1342" x1="113.008" y1="258.164" x2="104.979" y2="261.681" gradientUnits="userSpaceOnUse">
<stop stop-color="#7D694E"/>
<stop offset="1"/>
</linearGradient>
<linearGradient id="paint21_linear_633_1342" x1="79.284" y1="270.473" x2="81.8844" y2="259.266" gradientUnits="userSpaceOnUse">
<stop stop-color="#544846"/>
<stop offset="1"/>
</linearGradient>
<linearGradient id="paint22_linear_633_1342" x1="83.255" y1="258.24" x2="84.7758" y2="253.373" gradientUnits="userSpaceOnUse">
<stop stop-color="#675552"/>
<stop offset="1"/>
</linearGradient>
<linearGradient id="paint23_linear_633_1342" x1="82.9275" y1="252.484" x2="81.7846" y2="255.403" gradientUnits="userSpaceOnUse">
<stop stop-color="#756E6C"/>
<stop offset="1" stop-color="#A78A74"/>
</linearGradient>
<clipPath id="clip0_633_1342">
<rect width="360" height="343" fill="white"/>
</clipPath>
</defs>
</svg>
