<svg width="50" height="50" viewBox="0 0 50 50" fill="none" xmlns="http://www.w3.org/2000/svg">
<path d="M27.5 36.4285C26.1195 36.4285 25 37.708 25 39.2857C25 40.8634 26.1195 42.1428 27.5 42.1428C28.8805 42.1428 30 40.8634 30 39.2857C30 37.7053 28.8828 36.4285 27.5 36.4285ZM37.5 24.9999C36.1195 24.9999 35 26.2794 35 27.857C35 29.4347 36.1195 30.7142 37.5 30.7142C38.8805 30.7142 40 29.4347 40 27.857C40 26.2767 38.8828 24.9999 37.5 24.9999ZM42.5 19.2856C41.1195 19.2856 40 20.565 40 22.1427C40 23.7204 41.1195 24.9999 42.5 24.9999C43.8805 24.9999 45 23.7204 45 22.1427C45 20.5624 43.8828 19.2856 42.5 19.2856ZM27.5 30.7142C27.5 29.1365 26.3805 27.857 25 27.857C23.6195 27.857 22.5 29.1365 22.5 30.7142C22.5 32.2919 23.6195 33.5714 25 33.5714C26.3805 33.5714 27.5 32.2946 27.5 30.7142ZM30 22.1427C28.6195 22.1427 27.5 23.4222 27.5 24.9999C27.5 26.5776 28.6195 27.857 30 27.857C31.3805 27.857 32.5 26.5776 32.5 24.9999C32.5 23.4195 31.3828 22.1427 30 22.1427ZM35 22.1427C36.3805 22.1427 37.5 20.8633 37.5 19.2856C37.5 17.7079 36.3805 16.4284 35 16.4284C33.6195 16.4284 32.5 17.7079 32.5 19.2856C32.5 20.8659 33.6172 22.1427 35 22.1427ZM32.5 30.7142C31.1195 30.7142 30 31.9937 30 33.5714C30 35.1491 31.1195 36.4285 32.5 36.4285C33.8805 36.4285 35 35.1491 35 33.5714C35 31.991 33.8828 30.7142 32.5 30.7142ZM32.1328 10.2954L31.2492 9.28552C30.7611 8.72766 29.9695 8.72766 29.4812 9.28552L28.9632 9.87758C26.2171 7.53025 22.5718 7.27399 19.6195 9.09374L18.3203 7.61141C15.3281 4.19175 9.97266 3.77924 6.71719 8.49623C5.54898 10.1882 5 12.348 5 14.4998V43.5714C5 44.3571 5.55969 45 6.25 45H8.75C9.44063 45 10 44.3571 10 43.5714V13.9195C10 12.1534 11.257 10.7168 12.8031 10.7168C13.5405 10.7168 14.2633 11.0586 14.7859 11.6543L16.0836 13.1373C14.4922 16.5088 14.7109 20.6784 16.7656 23.8124L16.25 24.4106C15.7619 24.9685 15.7619 25.8731 16.25 26.4311L17.1336 27.441C17.6217 27.999 18.4133 27.999 18.9016 27.441L32.1359 12.3159C32.625 11.7588 32.625 10.8534 32.1328 10.2954Z" fill="#33813A"/>
</svg>
