<svg width="46" height="46" viewBox="0 0 46 46" fill="none" xmlns="http://www.w3.org/2000/svg">
<path d="M9.66665 11.8889C12.6122 11.8889 15 9.89904 15 7.44444C15 4.98985 12.6122 3 9.66665 3C6.72113 3 4.33331 4.98985 4.33331 7.44444C4.33331 9.89904 6.72113 11.8889 9.66665 11.8889Z" stroke="#33813A" stroke-width="5" stroke-linecap="round" stroke-linejoin="round"/>
<path d="M33.6666 11.8889C36.6122 11.8889 39 9.89904 39 7.44444C39 4.98985 36.6122 3 33.6666 3C30.7211 3 28.3333 4.98985 28.3333 7.44444C28.3333 9.89904 30.7211 11.8889 33.6666 11.8889Z" stroke="#33813A" stroke-width="5" stroke-linecap="round" stroke-linejoin="round"/>
<path d="M3 18.5555H16.3333L13.6667 43H5.66667L3 18.5555ZM27 18.5555H40.3333L43 30.7778H39L37.6667 43H29.6667L28.3333 30.7778H24.3333L27 18.5555Z" stroke="#33813A" stroke-width="5" stroke-linecap="round" stroke-linejoin="round"/>
</svg>
