<svg width="360" height="72" viewBox="0 0 360 72" fill="none" xmlns="http://www.w3.org/2000/svg">
<path fill-rule="evenodd" clip-rule="evenodd" d="M360 62.3C359 62.3 358 62.2 357.1 62.2C346.9 61.4 332.9 54.6 318.8 47.7C303.6 40.4 288.3 33 277.4 32.7C268.7 32.5 256.3 37.9 244 43.4C231.3 49 218.6 54.6 209.6 54.2C198.5 53.7 183.3 45.3 168.4 37.1C154.7 29.6 141.2 22.2 131.2 20.9C121.8 19.7 108 23.3 94.1 26.9C78.9 30.8 63.4 34.8 53.3 32.7C38 29.6 0 0 0 0V72H360V62.3Z" fill="url(#paint0_linear_704_371)"/>
<path fill-rule="evenodd" clip-rule="evenodd" d="M360 41.0999C354.9 42.8999 349.3 45.0999 343.7 47.1999C329.6 52.5999 315.4 57.9999 309 58.6999C294.1 60.3999 260 55.5999 230.4 51.4999C207 48.1999 186.4 45.2999 180.1 46.2999C176.1 46.8999 173.3 48.3999 170.6 49.8999C167.8 51.3999 165 52.7999 161.1 53.4999C147.1 55.7999 117.5 41.1999 89.5 27.2999C64.6 14.8999 40.9 3.19993 30.3 4.39993C16.2 5.89993 0 22.2999 0 22.2999V71.9999H360V41.0999Z" fill="url(#paint1_linear_704_371)"/>
<defs>
<linearGradient id="paint0_linear_704_371" x1="180" y1="72" x2="180" y2="-12.921" gradientUnits="userSpaceOnUse">
<stop stop-color="#84CE5F"/>
<stop offset="0.7851" stop-color="#0C5C28"/>
</linearGradient>
<linearGradient id="paint1_linear_704_371" x1="180" y1="71.9999" x2="180" y2="-12.5681" gradientUnits="userSpaceOnUse">
<stop offset="0.2188" stop-color="#33813A"/>
<stop offset="1" stop-color="#80CB5E"/>
</linearGradient>
</defs>
</svg>
