<svg width="30" height="30" viewBox="0 0 30 30" fill="none" xmlns="http://www.w3.org/2000/svg">
<path d="M19.604 0H10.3949C1.99118 0 -0.00100708 1.99219 -0.00100708 10.3959V19.605C-0.00100708 28.0088 1.99118 30.0009 10.3949 30.0009H19.604C28.0077 30.0009 29.9999 28.0088 29.9999 19.605V10.3959C29.9999 1.99219 27.9881 0 19.604 0ZM24.2184 21.4012H22.0406C21.2156 21.4012 20.9615 20.7469 19.4774 19.2431C18.1884 17.9934 17.6174 17.8275 17.2996 17.8275C16.8506 17.8275 16.7231 17.9541 16.7231 18.57V20.5378C16.7231 21.0656 16.5571 21.3825 15.1602 21.3825C12.8502 21.3825 10.2871 19.9856 8.48993 17.3831C5.77962 13.5694 5.03806 10.7128 5.03806 10.1222C5.03806 9.80437 5.16462 9.50719 5.77493 9.50719H7.95743C8.50962 9.50719 8.71962 9.76125 8.93431 10.3519C10.0134 13.4672 11.8106 16.1962 12.5521 16.1962C12.8259 16.1962 12.9524 16.0697 12.9524 15.3713V12.1537C12.869 10.6697 12.0881 10.5422 12.0881 10.0153C12.0881 9.76125 12.2981 9.50719 12.6346 9.50719H16.0668C16.5309 9.50719 16.7015 9.76125 16.7015 10.3078V14.6484C16.7015 15.1172 16.9115 15.2831 17.0381 15.2831C17.3118 15.2831 17.5462 15.1172 18.0534 14.6091C19.6209 12.8512 20.744 10.1409 20.744 10.1409C20.8902 9.82313 21.1443 9.52594 21.6965 9.52594H23.879C24.5334 9.52594 24.6796 9.8625 24.5334 10.3313C24.2596 11.6006 21.5887 15.3703 21.5887 15.3703C21.359 15.7509 21.2709 15.9169 21.5887 16.3416C21.8231 16.6594 22.5852 17.3184 23.0924 17.9091C24.0252 18.9684 24.7424 19.8572 24.9337 20.4722C25.1484 21.0825 24.8315 21.4003 24.2156 21.4003L24.2184 21.4012Z" fill="white"/>
</svg>
